<svg width="34" height="34" viewBox="0 0 34 34" fill="none" xmlns="http://www.w3.org/2000/svg">
<g clip-path="url(#clip0_65_136)">
<path d="M23.1999 0.466797H10.7999C5.09382 0.466797 0.466553 5.09406 0.466553 10.8001V23.2001C0.466553 28.9062 5.09382 33.5335 10.7999 33.5335H23.1999C28.906 33.5335 33.5332 28.9062 33.5332 23.2001V10.8001C33.5332 5.09406 28.906 0.466797 23.1999 0.466797ZM30.4332 23.2001C30.4332 27.1888 27.1886 30.4335 23.1999 30.4335H10.7999C6.81122 30.4335 3.56655 27.1888 3.56655 23.2001V10.8001C3.56655 6.81146 6.81122 3.5668 10.7999 3.5668H23.1999C27.1886 3.5668 30.4332 6.81146 30.4332 10.8001V23.2001Z" fill="white"/>
<path d="M16.9998 8.7334C12.4346 8.7334 8.73315 12.4348 8.73315 17.0001C8.73315 21.5653 12.4346 25.2667 16.9998 25.2667C21.5651 25.2667 25.2665 21.5653 25.2665 17.0001C25.2665 12.4348 21.5651 8.7334 16.9998 8.7334ZM16.9998 22.1667C14.152 22.1667 11.8332 19.8479 11.8332 17.0001C11.8332 14.1501 14.152 11.8334 16.9998 11.8334C19.8477 11.8334 22.1665 14.1501 22.1665 17.0001C22.1665 19.8479 19.8477 22.1667 16.9998 22.1667Z" fill="white"/>
<path d="M25.8867 9.21527C26.4951 9.21527 26.9882 8.7221 26.9882 8.11374C26.9882 7.50538 26.4951 7.01221 25.8867 7.01221C25.2783 7.01221 24.7852 7.50538 24.7852 8.11374C24.7852 8.7221 25.2783 9.21527 25.8867 9.21527Z" fill="white"/>
</g>
<defs>
<clipPath id="clip0_65_136">
<rect width="33.0667" height="33.0667" fill="white" transform="translate(0.466553 0.466797)"/>
</clipPath>
</defs>
</svg>
