<svg width="18" height="18" viewBox="0 0 18 18" fill="none" xmlns="http://www.w3.org/2000/svg">
<path d="M9.002 1H8.998C4.587 1 1 4.588 1 9C1 10.75 1.564 12.372 2.523 13.689L1.526 16.661L4.601 15.678C5.866 16.516 7.375 17 9.002 17C13.413 17 17 13.411 17 9C17 4.589 13.413 1 9.002 1ZM13.657 12.297C13.464 12.842 12.698 13.294 12.087 13.426C11.669 13.515 11.123 13.586 9.285 12.824C6.934 11.85 5.42 9.461 5.302 9.306C5.189 9.151 4.352 8.041 4.352 6.893C4.352 5.745 4.935 5.186 5.17 4.946C5.363 4.749 5.682 4.659 5.988 4.659C6.087 4.659 6.176 4.664 6.256 4.668C6.491 4.678 6.609 4.692 6.764 5.063C6.957 5.528 7.427 6.676 7.483 6.794C7.54 6.912 7.597 7.072 7.517 7.227C7.442 7.387 7.376 7.458 7.258 7.594C7.14 7.73 7.028 7.834 6.91 7.98C6.802 8.107 6.68 8.243 6.816 8.478C6.952 8.708 7.422 9.475 8.114 10.091C9.007 10.886 9.731 11.14 9.99 11.248C10.183 11.328 10.413 11.309 10.554 11.159C10.733 10.966 10.954 10.646 11.179 10.331C11.339 10.105 11.541 10.077 11.753 10.157C11.969 10.232 13.112 10.797 13.347 10.914C13.582 11.032 13.737 11.088 13.794 11.187C13.85 11.286 13.85 11.751 13.657 12.297Z" fill="white"/>
</svg>
