<?xml version="1.0" encoding="utf-8"?><svg width="34" height="34" xmlns="http://www.w3.org/2000/svg" viewBox="0 0 34 34"><g clip-path="url(#aclip0_65_136)"><path d="M23.2.467H10.8C5.094.467.467 5.094.467 10.8v12.4c0 5.706 4.627 10.333 10.333 10.333h12.4c5.706 0 10.333-4.627 10.333-10.333V10.8C33.533 5.094 28.906.467 23.2.467zM30.433 23.2c0 3.989-3.244 7.233-7.233 7.233H10.8c-3.989 0-7.233-3.244-7.233-7.233V10.8c0-3.989 3.244-7.233 7.233-7.233h12.4c3.989 0 7.233 3.244 7.233 7.233v12.4z"/><path d="M17 8.733a8.267 8.267 0 100 16.535 8.267 8.267 0 000-16.535zm0 13.434A5.174 5.174 0 0111.833 17 5.173 5.173 0 0117 11.833 5.173 5.173 0 0122.166 17 5.174 5.174 0 0117 22.167zM25.887 9.215a1.101 1.101 0 100-2.203 1.101 1.101 0 000 2.203z"/></g><defs><clipPath id="aclip0_65_136"><path transform="translate(.467 .467)" d="M0 0h33.067v33.067H0z"/></clipPath></defs></svg>