<?xml version="1.0" encoding="utf-8"?><svg viewBox="0 0 34 34" xmlns="http://www.w3.org/2000/svg" xmlns:xlink="http://www.w3.org/1999/xlink"><style>:root>svg{display:none}:root>svg:target{display:block}</style><svg viewBox="0 0 34 34" id="icon-inst" xmlns="http://www.w3.org/2000/svg"><g clip-path="url(#aclip0_65_136)"><path d="M23.2.467H10.8C5.094.467.467 5.094.467 10.8v12.4c0 5.706 4.627 10.333 10.333 10.333h12.4c5.706 0 10.333-4.627 10.333-10.333V10.8C33.533 5.094 28.906.467 23.2.467zM30.433 23.2c0 3.989-3.244 7.233-7.233 7.233H10.8c-3.989 0-7.233-3.244-7.233-7.233V10.8c0-3.989 3.244-7.233 7.233-7.233h12.4c3.989 0 7.233 3.244 7.233 7.233v12.4z"/><path d="M17 8.733a8.267 8.267 0 100 16.535 8.267 8.267 0 000-16.535zm0 13.434A5.174 5.174 0 0111.833 17 5.173 5.173 0 0117 11.833 5.173 5.173 0 0122.166 17 5.174 5.174 0 0117 22.167zM25.887 9.215a1.101 1.101 0 100-2.203 1.101 1.101 0 000 2.203z"/></g><defs><clipPath id="aclip0_65_136"><path transform="translate(.467 .467)" d="M0 0h33.067v33.067H0z"/></clipPath></defs></svg><svg viewBox="0 0 18 18" id="icon-ws" xmlns="http://www.w3.org/2000/svg"><path d="M9.002 1h-.004C4.587 1 1 4.588 1 9a7.94 7.94 0 001.523 4.689l-.997 2.972 3.075-.983A7.93 7.93 0 009.002 17C13.413 17 17 13.411 17 9s-3.587-8-7.998-8zm4.655 11.297c-.193.545-.959.997-1.57 1.129-.418.089-.964.16-2.802-.602-2.351-.974-3.865-3.363-3.983-3.518-.113-.155-.95-1.265-.95-2.413s.583-1.707.818-1.947c.193-.197.512-.287.818-.287.099 0 .188.005.268.009.235.01.353.024.508.395.193.465.663 1.613.719 1.731.057.118.114.278.034.433-.075.16-.141.231-.259.367-.118.136-.23.24-.348.386-.108.127-.23.263-.094.498.136.23.606.997 1.298 1.613.893.795 1.617 1.049 1.876 1.157.193.08.423.061.564-.089.179-.193.4-.513.625-.828.16-.226.362-.254.574-.174.216.075 1.359.64 1.594.757.235.118.39.174.447.273.056.099.056.564-.137 1.11z"/></svg></svg>