<svg width="128" height="128" viewBox="0 0 128 128" fill="none" xmlns="http://www.w3.org/2000/svg">
<g clip-path="url(#clip0_434_935)">
<path d="M108.745 70.1696C108.734 65.8882 107.725 61.6805 105.801 57.8609L110.22 53.4425C113.532 50.13 113.532 44.7399 110.22 41.4272C108.568 39.775 106.399 38.9472 104.228 38.9432C104.225 36.6783 103.342 34.5496 101.74 32.9476C100.087 31.2947 97.9163 30.4667 95.7446 30.4637C95.7416 28.292 94.9137 26.1213 93.2604 24.468C91.6595 22.8673 89.532 21.9841 87.2688 21.9801C87.2645 19.7169 86.3816 17.5894 84.7808 15.9885C83.1761 14.3837 81.0424 13.5 78.7732 13.5C76.504 13.5 74.3703 14.3837 72.7658 15.9885L64.002 24.7523L59.1256 19.8756C57.5209 18.2709 55.3874 17.3872 53.118 17.3872C50.8485 17.3872 48.715 18.2709 47.1106 19.8756C45.5086 21.4776 44.6256 23.6063 44.6224 25.8713C42.4522 25.8753 40.283 26.703 38.6307 28.3552C37.0298 29.9562 36.1468 32.0834 36.1425 34.3468C33.8793 34.3511 31.7519 35.2341 30.1509 36.835C27.4155 39.5705 26.9415 43.7217 28.7237 46.9508C27.4962 47.3521 26.342 48.0373 25.368 49.0113C22.0556 52.324 22.0556 57.7139 25.368 61.0266L28.9067 64.5652L0.79272 92.6792C-0.183511 93.6554 -0.183511 95.2384 0.79272 96.2149C1.28096 96.7029 1.9207 96.9471 2.56044 96.9471C3.20017 96.9471 3.84016 96.7029 4.32815 96.2149L23.3863 77.1567L41.2392 95.0096L12.6437 123.605C11.6675 124.581 11.6675 126.164 12.6437 127.141C13.132 127.629 13.7717 127.873 14.4115 127.873C15.0512 127.873 15.6912 127.629 16.1792 127.141L54.8294 88.4905C55.5414 87.7785 56.3519 87.2015 57.2289 86.7676L63.2778 90.7517C67.2784 93.3867 72.1561 94.4162 76.8587 93.6547L110.472 127.268C110.961 127.756 111.6 128 112.24 128C112.88 128 113.52 127.756 114.008 127.268C114.984 126.292 114.984 124.709 114.008 123.733L94.5047 104.229L96.8624 101.872C97.8386 100.896 97.8386 99.3126 96.8624 98.3361C95.8861 97.3601 94.3032 97.3601 93.3267 98.3361L90.969 100.694L85.4488 95.1736L106.063 74.5593L111.583 80.0797L109.231 82.4321C108.255 83.4086 108.255 84.9913 109.231 85.9678C109.719 86.4558 110.359 86.7001 110.999 86.7001C111.638 86.7001 112.278 86.4558 112.766 85.9678L115.119 83.6154L123.73 92.2264C124.218 92.7144 124.858 92.9587 125.498 92.9587C126.137 92.9587 126.777 92.7144 127.265 92.2264C128.242 91.2502 128.242 89.6673 127.265 88.6908L108.745 70.1696ZM76.3013 19.5239C76.9615 18.8636 77.8395 18.4999 78.7732 18.4999C79.7069 18.4999 80.5849 18.8636 81.2452 19.5239C81.9056 20.1841 82.2691 21.0621 82.2691 21.9958C82.2691 22.9298 81.9054 23.8078 81.2452 24.468L75.7515 29.9617C74.7753 30.9379 74.7753 32.5209 75.7515 33.4974C76.7278 34.4738 78.3107 34.4736 79.2872 33.4974L84.7808 28.0037C85.4411 27.3432 86.3191 26.9797 87.2531 26.9797C88.1868 26.9797 89.0648 27.3435 89.725 28.0037C91.0882 29.3669 91.0882 31.5846 89.725 32.9479L81.3362 41.3367C80.3599 42.3129 80.3599 43.8959 81.3362 44.8724C81.8244 45.3606 82.4641 45.6046 83.1039 45.6046C83.7436 45.6046 84.3836 45.3606 84.8716 44.8724L93.2604 36.4835C93.9207 35.8231 94.7987 35.4596 95.7324 35.4596C96.6664 35.4596 97.5443 35.8233 98.2046 36.4835C98.8648 37.1438 99.2286 38.0218 99.2286 38.9555C99.2286 39.8892 98.8648 40.7672 98.2046 41.4275L89.8158 49.8163C88.8395 50.7925 88.8395 52.3755 89.8158 53.352C90.304 53.8402 90.9437 54.0842 91.5835 54.0842C92.2232 54.0842 92.8632 53.8402 93.3512 53.352L101.74 44.9631C103.103 43.5999 105.321 43.6002 106.684 44.9631C108.047 46.3264 108.047 48.5443 106.684 49.9073L86.0203 70.5709C79.4044 77.187 70.6081 80.8307 61.2513 80.8307C58.7176 80.8307 56.2871 81.4979 54.1567 82.7446L39.6867 68.2747C40.8002 67.8542 41.8222 67.1999 42.6892 66.333C44.2911 64.731 45.1741 62.6023 45.1774 60.3373C47.3476 60.3333 49.5168 59.5053 51.169 57.8531C52.8212 56.2009 53.6489 54.032 53.6529 51.8615C55.9179 51.8585 58.0469 50.9753 59.6486 49.3733C61.3008 47.7211 62.1285 45.5521 62.1325 43.3817C64.3975 43.3787 66.5262 42.4954 68.1279 40.8937C69.7326 39.289 70.6164 37.1555 70.6164 34.8861C70.6164 32.6166 69.7326 30.4832 68.1279 28.8784L67.5367 28.2872L76.3013 19.5239ZM50.646 23.4111C51.3062 22.7508 52.1842 22.3871 53.118 22.3871C54.0517 22.3871 54.9297 22.7508 55.5899 23.4111L64.5932 32.4141C65.2535 33.0744 65.6172 33.9523 65.6172 34.8861C65.6172 35.8198 65.2535 36.6978 64.5932 37.3583C63.933 38.0185 63.055 38.3823 62.1213 38.3823C61.1878 38.3823 60.3103 38.0188 59.6501 37.359C59.6498 37.3588 59.6496 37.3585 59.6493 37.358L50.646 28.355C49.9858 27.6947 49.622 26.8167 49.622 25.883C49.622 24.9493 49.9855 24.0715 50.646 23.4111ZM42.1662 31.8906C42.8479 31.2089 43.7429 30.8684 44.6384 30.8684C45.5336 30.8684 46.4291 31.2092 47.1103 31.8906L56.1134 40.8937C57.4766 42.2569 57.4764 44.4749 56.1134 45.8381C55.4532 46.4983 54.5752 46.8621 53.6414 46.8621C52.708 46.8621 51.8305 46.4986 51.1702 45.8389C51.17 45.8386 51.1697 45.8384 51.1695 45.8379L42.1664 36.8348C41.5059 36.1746 41.1424 35.2966 41.1424 34.3626C41.1422 33.4289 41.5059 32.5511 42.1662 31.8906ZM33.6866 40.3705C34.3468 39.71 35.2248 39.3465 36.1585 39.3465C37.0925 39.3465 37.9705 39.7102 38.6307 40.3705L47.6338 49.3735C48.997 50.7368 48.997 52.9547 47.6338 54.3177C46.2706 55.6807 44.0526 55.6809 42.6894 54.3177L33.6863 45.3146C32.3234 43.9516 32.3234 41.7334 33.6866 40.3705ZM28.9034 52.5467C29.5852 51.865 30.4804 51.5245 31.3756 51.5245C32.2696 51.5245 33.1641 51.8647 33.8451 52.5445L39.154 57.8534C39.8142 58.5136 40.178 59.3916 40.178 60.3253C40.178 61.2591 39.8142 62.137 39.154 62.7975C38.4937 63.458 37.6158 63.8215 36.6818 63.8215C35.7488 63.8215 34.8713 63.4583 34.2111 62.7988L34.2098 62.7975L28.9034 57.4911C27.5405 56.1277 27.5405 53.9097 28.9034 52.5467ZM26.922 73.6211L32.4424 68.1007L50.2955 85.9536L44.7751 91.474L26.922 73.6211ZM79.4489 89.1735C78.8332 88.558 77.9417 88.3058 77.0957 88.511C73.3121 89.4217 69.2781 88.7168 66.0282 86.5761L64.6742 85.6841C74.0753 84.8931 82.8086 80.8542 89.5563 74.1063L102.033 61.6303C103.106 64.224 103.685 66.9962 103.738 69.8141L81.9139 91.6385L79.4489 89.1735Z" fill="url(#paint0_linear_434_935)"/>
<path d="M101.276 90.3868C100.811 90.8518 100.544 91.4943 100.544 92.1543C100.544 92.8118 100.811 93.4568 101.276 93.9215C101.741 94.3865 102.386 94.6543 103.044 94.6543C103.704 94.6543 104.346 94.3868 104.811 93.9215C105.276 93.4568 105.544 92.8118 105.544 92.1543C105.544 91.494 105.276 90.8518 104.811 90.3868C104.346 89.9218 103.701 89.6543 103.044 89.6543C102.386 89.6543 101.741 89.9218 101.276 90.3868Z" fill="url(#paint1_linear_434_935)"/>
<path d="M16.8907 20.424C17.3789 20.9123 18.0186 21.1563 18.6584 21.1563C19.2981 21.1563 19.9381 20.9123 20.4261 20.424C21.4023 19.4478 21.4023 17.8648 20.4261 16.8884L8.65857 5.12085C7.68234 4.14461 6.09937 4.14461 5.12289 5.12085C4.14641 6.09708 4.14666 7.68005 5.12289 8.65653L16.8907 20.424Z" fill="url(#paint2_linear_434_935)"/>
<path d="M30.5 13.6287C31.8807 13.6287 32.9999 12.5095 32.9999 11.1288V2.49995C32.9999 1.11923 31.8807 0 30.5 0C29.1192 0 28 1.11923 28 2.49995V11.1288C28 12.5095 29.1192 13.6287 30.5 13.6287Z" fill="url(#paint3_linear_434_935)"/>
<path d="M2.50093 32.9989H11.1298C12.5105 32.9989 13.6297 31.8797 13.6297 30.499C13.6297 29.1183 12.5105 27.999 11.1298 27.999H2.50093C1.1202 27.999 0.000976562 29.1183 0.000976562 30.499C0.000976562 31.8797 1.1202 32.9989 2.50093 32.9989Z" fill="url(#paint4_linear_434_935)"/>
<path d="M109.341 21.1564C109.981 21.1564 110.621 20.9124 111.109 20.4241L122.876 8.65662C123.852 7.68039 123.852 6.09742 122.876 5.12094C121.9 4.14446 120.317 4.14471 119.341 5.12094L107.573 16.8885C106.597 17.8647 106.597 19.4477 107.573 20.4241C108.061 20.9124 108.701 21.1564 109.341 21.1564Z" fill="url(#paint5_linear_434_935)"/>
<path d="M97.499 13.6287C98.8797 13.6287 99.9989 12.5095 99.9989 11.1288V2.49995C99.9989 1.11923 98.8797 0 97.499 0C96.1183 0 94.999 1.11923 94.999 2.49995V11.1288C94.999 12.5095 96.1183 13.6287 97.499 13.6287Z" fill="url(#paint6_linear_434_935)"/>
<path d="M114.37 30.499C114.37 31.8797 115.489 32.9989 116.87 32.9989H125.499C126.88 32.9989 127.999 31.8797 127.999 30.499C127.999 29.1183 126.88 27.999 125.499 27.999H116.87C115.489 27.999 114.37 29.1183 114.37 30.499Z" fill="url(#paint7_linear_434_935)"/>
</g>
<defs>
<linearGradient id="paint0_linear_434_935" x1="0.0605471" y1="71.3659" x2="133.053" y2="69.3701" gradientUnits="userSpaceOnUse">
<stop stop-color="#FCAF45"/>
<stop offset="0.197917" stop-color="#F77737"/>
<stop offset="0.395833" stop-color="#FD1D1D"/>
<stop offset="0.59375" stop-color="#C13584"/>
<stop offset="0.796875" stop-color="#833AB4"/>
<stop offset="1" stop-color="#405DE6"/>
</linearGradient>
<linearGradient id="paint1_linear_434_935" x1="100.544" y1="92.1812" x2="105.742" y2="92.1114" gradientUnits="userSpaceOnUse">
<stop stop-color="#FCAF45"/>
<stop offset="0.197917" stop-color="#F77737"/>
<stop offset="0.395833" stop-color="#FD1D1D"/>
<stop offset="0.59375" stop-color="#C13584"/>
<stop offset="0.796875" stop-color="#833AB4"/>
<stop offset="1" stop-color="#405DE6"/>
</linearGradient>
<linearGradient id="paint2_linear_434_935" x1="4.39063" y1="12.8626" x2="21.8216" y2="12.6285" gradientUnits="userSpaceOnUse">
<stop stop-color="#FCAF45"/>
<stop offset="0.197917" stop-color="#F77737"/>
<stop offset="0.395833" stop-color="#FD1D1D"/>
<stop offset="0.59375" stop-color="#C13584"/>
<stop offset="0.796875" stop-color="#833AB4"/>
<stop offset="1" stop-color="#405DE6"/>
</linearGradient>
<linearGradient id="paint3_linear_434_935" x1="28" y1="6.88764" x2="33.1985" y2="6.86203" gradientUnits="userSpaceOnUse">
<stop stop-color="#FCAF45"/>
<stop offset="0.197917" stop-color="#F77737"/>
<stop offset="0.395833" stop-color="#FD1D1D"/>
<stop offset="0.59375" stop-color="#C13584"/>
<stop offset="0.796875" stop-color="#833AB4"/>
<stop offset="1" stop-color="#405DE6"/>
</linearGradient>
<linearGradient id="paint4_linear_434_935" x1="0.000976583" y1="30.5259" x2="14.1525" y2="30.0078" gradientUnits="userSpaceOnUse">
<stop stop-color="#FCAF45"/>
<stop offset="0.197917" stop-color="#F77737"/>
<stop offset="0.395833" stop-color="#FD1D1D"/>
<stop offset="0.59375" stop-color="#C13584"/>
<stop offset="0.796875" stop-color="#833AB4"/>
<stop offset="1" stop-color="#405DE6"/>
</linearGradient>
<linearGradient id="paint5_linear_434_935" x1="106.841" y1="12.8627" x2="124.272" y2="12.6286" gradientUnits="userSpaceOnUse">
<stop stop-color="#FCAF45"/>
<stop offset="0.197917" stop-color="#F77737"/>
<stop offset="0.395833" stop-color="#FD1D1D"/>
<stop offset="0.59375" stop-color="#C13584"/>
<stop offset="0.796875" stop-color="#833AB4"/>
<stop offset="1" stop-color="#405DE6"/>
</linearGradient>
<linearGradient id="paint6_linear_434_935" x1="94.999" y1="6.88764" x2="100.198" y2="6.86203" gradientUnits="userSpaceOnUse">
<stop stop-color="#FCAF45"/>
<stop offset="0.197917" stop-color="#F77737"/>
<stop offset="0.395833" stop-color="#FD1D1D"/>
<stop offset="0.59375" stop-color="#C13584"/>
<stop offset="0.796875" stop-color="#833AB4"/>
<stop offset="1" stop-color="#405DE6"/>
</linearGradient>
<linearGradient id="paint7_linear_434_935" x1="114.37" y1="30.5259" x2="128.522" y2="30.0078" gradientUnits="userSpaceOnUse">
<stop stop-color="#FCAF45"/>
<stop offset="0.197917" stop-color="#F77737"/>
<stop offset="0.395833" stop-color="#FD1D1D"/>
<stop offset="0.59375" stop-color="#C13584"/>
<stop offset="0.796875" stop-color="#833AB4"/>
<stop offset="1" stop-color="#405DE6"/>
</linearGradient>
<clipPath id="clip0_434_935">
<rect width="128" height="128" fill="white"/>
</clipPath>
</defs>
</svg>
