<svg width="62" height="62" viewBox="0 0 62 62" fill="none" xmlns="http://www.w3.org/2000/svg">
<circle cx="31" cy="31" r="31" fill="url(#paint0_linear_65_134)"/>
<g clip-path="url(#clip0_65_134)">
<path d="M37.1999 14.4668H24.7999C19.0938 14.4668 14.4666 19.0941 14.4666 24.8001V37.2001C14.4666 42.9062 19.0938 47.5335 24.7999 47.5335H37.1999C42.906 47.5335 47.5332 42.9062 47.5332 37.2001V24.8001C47.5332 19.0941 42.906 14.4668 37.1999 14.4668ZM44.4332 37.2001C44.4332 41.1888 41.1886 44.4335 37.1999 44.4335H24.7999C20.8112 44.4335 17.5666 41.1888 17.5666 37.2001V24.8001C17.5666 20.8115 20.8112 17.5668 24.7999 17.5668H37.1999C41.1886 17.5668 44.4332 20.8115 44.4332 24.8001V37.2001Z" fill="white"/>
<path d="M30.9998 22.7334C26.4346 22.7334 22.7332 26.4348 22.7332 31.0001C22.7332 35.5653 26.4346 39.2667 30.9998 39.2667C35.5651 39.2667 39.2665 35.5653 39.2665 31.0001C39.2665 26.4348 35.5651 22.7334 30.9998 22.7334ZM30.9998 36.1667C28.152 36.1667 25.8332 33.8479 25.8332 31.0001C25.8332 28.1501 28.152 25.8334 30.9998 25.8334C33.8477 25.8334 36.1665 28.1501 36.1665 31.0001C36.1665 33.8479 33.8477 36.1667 30.9998 36.1667Z" fill="white"/>
<path d="M39.8867 23.2153C40.4951 23.2153 40.9882 22.7221 40.9882 22.1137C40.9882 21.5054 40.4951 21.0122 39.8867 21.0122C39.2783 21.0122 38.7852 21.5054 38.7852 22.1137C38.7852 22.7221 39.2783 23.2153 39.8867 23.2153Z" fill="white"/>
</g>
<defs>
<linearGradient id="paint0_linear_65_134" x1="10" y1="51.5" x2="57.5" y2="11" gradientUnits="userSpaceOnUse">
<stop stop-color="#FFDC80"/>
<stop offset="0.197917" stop-color="#F77737"/>
<stop offset="0.401042" stop-color="#FD1D1D"/>
<stop offset="0.598958" stop-color="#C13584"/>
<stop offset="0.796875" stop-color="#833AB4"/>
<stop offset="1" stop-color="#405DE6"/>
</linearGradient>
<clipPath id="clip0_65_134">
<rect width="33.0667" height="33.0667" fill="white" transform="translate(14.4666 14.4668)"/>
</clipPath>
</defs>
</svg>
