<svg width="138" height="138" viewBox="0 0 138 138" fill="none" xmlns="http://www.w3.org/2000/svg">
<path d="M135.844 66.8438V36.1215C135.844 29.0102 133.336 22.0843 128.786 16.6247C125.815 13.0583 122.001 10.1753 117.757 8.29078L103.957 2.15625H51.2929L37.495 8.28863C33.2515 10.1753 29.4371 13.0561 26.4658 16.6225C21.914 22.0843 19.4062 29.0102 19.4062 36.1215V66.8438H40.945C40.9537 67.5575 40.9688 68.2453 40.9688 69C40.9688 74.9124 40.4146 82.0324 39.3322 90.1895L13.6448 64.5021C12.392 63.2493 10.6583 62.5312 8.88591 62.5312C5.175 62.5312 2.15625 65.55 2.15625 69.2609C2.15625 71.0592 2.85488 72.7497 4.12706 74.0197L36.6951 106.588C34.5733 117.981 32.4278 126.606 32.4084 126.695L31.9621 128.476L33.6504 129.198C34.2822 129.472 49.4752 135.844 77.625 135.844C105.775 135.844 120.968 129.472 121.6 129.2L123.288 128.478L122.842 126.697C122.757 126.354 114.281 92.1754 114.281 69C114.281 68.2453 114.296 67.5575 114.305 66.8438H135.844ZM77.625 19.4062C70.0372 19.4062 63.756 13.772 62.7038 6.46875H92.5462C91.494 13.772 85.2128 19.4062 77.625 19.4062ZM58.995 9.69666L54.9757 11.3613C54.4863 9.79369 54.1693 8.15494 54.0162 6.46875H58.346C58.4689 7.57706 58.6931 8.65303 58.995 9.69666ZM60.6424 13.6814C61.1771 14.6452 61.7938 15.5552 62.4773 16.4112L59.409 19.4796C58.346 18.2052 57.4231 16.8166 56.6425 15.3374L60.6424 13.6814ZM65.5263 19.4602C66.3823 20.1458 67.2923 20.7625 68.2561 21.2973L66.6001 25.2971C65.1209 24.5166 63.7323 23.5915 62.4579 22.5307L65.5263 19.4602ZM72.243 22.9425C73.2866 23.2444 74.3626 23.4686 75.4688 23.5915V27.9213C73.7826 27.7682 72.1438 27.4491 70.5784 26.9618L72.243 22.9425ZM79.7812 23.5915C80.8896 23.4686 81.9655 23.2444 83.007 22.9425L84.6716 26.9618C83.104 27.4512 81.4674 27.7682 79.7812 27.9213V23.5915ZM88.6499 25.295L86.9939 21.2951C87.9578 20.7604 88.8698 20.1437 89.7237 19.458L92.7921 22.5263C91.5177 23.5915 90.1291 24.5144 88.6499 25.295ZM95.841 19.4796L92.7727 16.4112C93.4562 15.5552 94.075 14.6452 94.6076 13.6814L98.6075 15.3374C97.8269 16.8166 96.904 18.2052 95.841 19.4796ZM100.274 11.3613L96.255 9.69666C96.5569 8.65303 96.7811 7.57706 96.904 6.46875H101.234C101.081 8.15494 100.764 9.79369 100.274 11.3613ZM6.46875 69.2609C6.46875 67.9283 7.55334 66.8438 8.88591 66.8438C9.522 66.8438 10.1452 67.1025 10.5958 67.551L50.8573 107.812L47.4375 111.232L7.176 70.9708C6.71887 70.5137 6.46875 69.9078 6.46875 69.2609ZM62.5312 118.594V122.906H58.2188C53.751 122.906 50.066 119.491 49.6369 115.133L54.758 110.012C59.1157 110.439 62.5312 114.126 62.5312 118.594ZM118.201 125.865C113.57 127.46 99.5886 131.531 77.625 131.531C55.6571 131.531 41.6738 127.458 37.0465 125.865C37.7085 123.064 39.0152 117.341 40.3844 110.277L45.3308 115.224C45.8138 121.917 51.4028 127.219 58.2188 127.219H66.8438V118.594C66.8438 111.778 61.5415 106.189 54.8464 105.704L43.153 94.0103C44.5611 84.2986 45.2812 75.8784 45.2812 69C45.2812 45.5745 41.1628 40.2701 40.337 39.4443L37.2126 42.4134C37.2471 42.4544 40.199 46.2947 40.8394 62.5312H23.7188V36.1215C23.7188 30.015 25.8707 24.0724 29.78 19.3847C32.3308 16.3228 35.604 13.8496 39.2481 12.2302L49.7964 7.54256C51.4028 21.4806 63.2622 32.3438 77.625 32.3438C91.9878 32.3438 103.847 21.4806 105.456 7.54041L116.004 12.2281C119.646 13.8474 122.921 16.3207 125.472 19.3825C129.379 24.0724 131.531 30.015 131.531 36.1215V62.5312H114.411C115.049 46.3594 117.973 42.4932 117.962 42.4932L114.913 39.4443C114.087 40.2701 109.969 45.5745 109.969 69C109.969 89.8229 116.394 118.279 118.201 125.865Z" fill="url(#paint0_linear_434_754)"/>
<path d="M103.924 97.7557C105.22 106.221 106.779 114.109 107.991 119.773C105.778 120.28 103.437 120.735 101 121.127L101.69 125.386C105.004 124.849 108.163 124.202 111.074 123.465L113.099 122.954L112.65 120.914C111.413 115.26 109.631 106.54 108.187 97.1045L103.924 97.7557Z" fill="url(#paint1_linear_434_754)"/>
<path d="M77.625 51.75C62.169 51.75 49.5938 64.3252 49.5938 79.7812C49.5938 95.2373 62.169 107.812 77.625 107.812C93.081 107.812 105.656 95.2373 105.656 79.7812C105.656 64.3252 93.081 51.75 77.625 51.75ZM101.117 76.6827C99.1271 75.0526 96.8825 73.7394 94.461 72.8079C95.5111 70.4447 96.1731 67.9348 96.4275 65.3797C98.9007 68.6011 100.563 72.4651 101.117 76.6827ZM92.1064 94.2605C89.9458 94.0039 87.8327 93.3721 85.8468 92.4233C87.6106 91.2719 89.1178 89.7647 90.2692 88.0009C91.2158 89.9868 91.8476 92.0999 92.1064 94.2605ZM63.1436 65.302C65.3042 65.5586 67.4173 66.1904 69.4054 67.1392C67.6416 68.2906 66.1343 69.7978 64.9851 71.5595C64.032 69.5757 63.4024 67.4626 63.1436 65.302ZM79.7812 90.3447V85.8533C81.6076 85.2021 83.0458 83.7638 83.697 81.9375H88.1885C87.3281 86.1551 83.9989 89.4844 79.7812 90.3447ZM67.0615 81.9375H71.553C72.2042 83.7638 73.6424 85.2021 75.4688 85.8533V90.3447C71.2511 89.4844 67.9219 86.1551 67.0615 81.9375ZM75.4688 69.2178V73.7092C73.6424 74.3604 72.2042 75.7987 71.553 77.625H67.0615C67.9219 73.4074 71.2511 70.0781 75.4688 69.2178ZM77.625 81.9375C76.4347 81.9375 75.4688 80.9693 75.4688 79.7812C75.4688 78.5932 76.4347 77.625 77.625 77.625C78.8153 77.625 79.7812 78.5932 79.7812 79.7812C79.7812 80.9693 78.8153 81.9375 77.625 81.9375ZM88.1885 77.625H83.697C83.0458 75.7987 81.6076 74.3604 79.7812 73.7092V69.2178C83.9989 70.0781 87.3281 73.4074 88.1885 77.625ZM77.625 64.6875C76.5533 64.6875 75.5097 64.8039 74.5027 65.0174C75.2359 62.9452 76.2817 61.0089 77.625 59.3055C78.9683 61.0111 80.0141 62.9452 80.7473 65.0174C79.7403 64.8039 78.6967 64.6875 77.625 64.6875ZM64.9829 88.0009C66.1343 89.7647 67.6416 91.2719 69.4054 92.4233C67.4173 93.3742 65.3063 94.006 63.1436 94.2605C63.4024 92.0999 64.0342 89.9868 64.9829 88.0009ZM77.625 94.875C78.6967 94.875 79.7403 94.7586 80.7473 94.5451C80.0141 96.6172 78.9683 98.5536 77.625 100.257C76.2817 98.5514 75.2359 96.6172 74.5027 94.5451C75.5097 94.7586 76.5533 94.875 77.625 94.875ZM90.2671 71.5616C89.1157 69.7978 87.6106 68.2906 85.8468 67.1413C87.8348 66.1904 89.9458 65.5586 92.1064 65.3042C91.8476 67.4626 91.218 69.5736 90.2671 71.5616ZM84.5983 62.9452C83.6668 60.5238 82.3515 58.277 80.7235 56.2889C84.9412 56.8431 88.8052 58.5055 92.0266 60.9788C89.4736 61.2353 86.9637 61.8952 84.5983 62.9452ZM70.6517 62.9452C68.2884 61.8952 65.7764 61.2353 63.2234 60.9788C66.4448 58.5055 70.3088 56.8431 74.5265 56.2889C72.8963 58.2791 71.5832 60.5259 70.6517 62.9452ZM62.8612 76.6568C62.6477 77.666 62.5312 78.7096 62.5312 79.7812C62.5312 80.8529 62.6477 81.8965 62.8612 82.9057C60.789 82.1725 58.8527 81.1268 57.1471 79.7812C58.8527 78.4379 60.789 77.3921 62.8612 76.6568ZM70.6517 96.6172C71.5832 99.0387 72.8985 101.286 74.5265 103.274C70.3088 102.719 66.4448 101.057 63.2234 98.5838C65.7764 98.3272 68.2863 97.6673 70.6517 96.6172ZM84.5983 96.6172C86.9616 97.6673 89.4736 98.3272 92.0266 98.5838C88.8052 101.057 84.9412 102.719 80.7235 103.274C82.3537 101.283 83.6668 99.0366 84.5983 96.6172ZM92.3888 82.9057C92.6023 81.8965 92.7188 80.8529 92.7188 79.7812C92.7188 78.7096 92.6023 77.666 92.3888 76.6568C94.461 77.39 96.3952 78.4357 98.1029 79.7812C96.3973 81.1246 94.461 82.1725 92.3888 82.9057ZM58.8225 65.3797C59.0791 67.9327 59.7389 70.4447 60.789 72.8079C58.3675 73.7394 56.1207 75.0526 54.1327 76.6827C54.6868 72.4651 56.3493 68.6011 58.8225 65.3797ZM54.1327 82.8798C56.1229 84.5099 58.3675 85.8231 60.789 86.7546C59.7389 89.1178 59.0791 91.6298 58.8225 94.1828C56.3493 90.9614 54.6868 87.0974 54.1327 82.8798ZM96.4275 94.1828C96.1709 91.6298 95.5111 89.12 94.461 86.7546C96.8825 85.8231 99.1293 84.5099 101.117 82.8798C100.563 87.0974 98.9007 90.9614 96.4275 94.1828Z" fill="url(#paint2_linear_434_754)"/>
<path d="M49.5938 43.125H62.5312V47.4375H49.5938V43.125Z" fill="url(#paint3_linear_434_754)"/>
<path d="M105.656 47.4375C106.847 47.4375 107.812 46.4721 107.812 45.2812C107.812 44.0904 106.847 43.125 105.656 43.125C104.465 43.125 103.5 44.0904 103.5 45.2812C103.5 46.4721 104.465 47.4375 105.656 47.4375Z" fill="url(#paint4_linear_434_754)"/>
<path d="M97.0312 47.4375C98.2221 47.4375 99.1875 46.4721 99.1875 45.2812C99.1875 44.0904 98.2221 43.125 97.0312 43.125C95.8404 43.125 94.875 44.0904 94.875 45.2812C94.875 46.4721 95.8404 47.4375 97.0312 47.4375Z" fill="url(#paint5_linear_434_754)"/>
<defs>
<linearGradient id="paint0_linear_434_754" x1="2.15625" y1="69.7188" x2="141.133" y2="67.8523" gradientUnits="userSpaceOnUse">
<stop stop-color="#FCAF45"/>
<stop offset="0.197917" stop-color="#F77737"/>
<stop offset="0.395833" stop-color="#FD1D1D"/>
<stop offset="0.59375" stop-color="#C13584"/>
<stop offset="0.796875" stop-color="#833AB4"/>
<stop offset="1" stop-color="#405DE6"/>
</linearGradient>
<linearGradient id="paint1_linear_434_754" x1="101" y1="111.397" x2="113.579" y2="111.325" gradientUnits="userSpaceOnUse">
<stop stop-color="#FCAF45"/>
<stop offset="0.197917" stop-color="#F77737"/>
<stop offset="0.395833" stop-color="#FD1D1D"/>
<stop offset="0.59375" stop-color="#C13584"/>
<stop offset="0.796875" stop-color="#833AB4"/>
<stop offset="1" stop-color="#405DE6"/>
</linearGradient>
<linearGradient id="paint2_linear_434_754" x1="49.5938" y1="80.0827" x2="107.874" y2="79.2999" gradientUnits="userSpaceOnUse">
<stop stop-color="#FCAF45"/>
<stop offset="0.197917" stop-color="#F77737"/>
<stop offset="0.395833" stop-color="#FD1D1D"/>
<stop offset="0.59375" stop-color="#C13584"/>
<stop offset="0.796875" stop-color="#833AB4"/>
<stop offset="1" stop-color="#405DE6"/>
</linearGradient>
<linearGradient id="paint3_linear_434_754" x1="49.5938" y1="45.3044" x2="63.0237" y2="44.7633" gradientUnits="userSpaceOnUse">
<stop stop-color="#FCAF45"/>
<stop offset="0.197917" stop-color="#F77737"/>
<stop offset="0.395833" stop-color="#FD1D1D"/>
<stop offset="0.59375" stop-color="#C13584"/>
<stop offset="0.796875" stop-color="#833AB4"/>
<stop offset="1" stop-color="#405DE6"/>
</linearGradient>
<linearGradient id="paint4_linear_434_754" x1="103.5" y1="45.3044" x2="107.983" y2="45.2442" gradientUnits="userSpaceOnUse">
<stop stop-color="#FCAF45"/>
<stop offset="0.197917" stop-color="#F77737"/>
<stop offset="0.395833" stop-color="#FD1D1D"/>
<stop offset="0.59375" stop-color="#C13584"/>
<stop offset="0.796875" stop-color="#833AB4"/>
<stop offset="1" stop-color="#405DE6"/>
</linearGradient>
<linearGradient id="paint5_linear_434_754" x1="94.875" y1="45.3044" x2="99.3581" y2="45.2442" gradientUnits="userSpaceOnUse">
<stop stop-color="#FCAF45"/>
<stop offset="0.197917" stop-color="#F77737"/>
<stop offset="0.395833" stop-color="#FD1D1D"/>
<stop offset="0.59375" stop-color="#C13584"/>
<stop offset="0.796875" stop-color="#833AB4"/>
<stop offset="1" stop-color="#405DE6"/>
</linearGradient>
</defs>
</svg>
