<svg width="56" height="56" viewBox="0 0 56 56" fill="none" xmlns="http://www.w3.org/2000/svg">
<g clip-path="url(#clip0_119_224)">
<path d="M54.9 41.6034C53.0215 39.7249 50.5238 38.6902 47.8671 38.6902C45.4961 38.6902 43.2518 39.5142 41.4612 41.0269C37.5577 37.7362 31.6981 37.9284 28.0231 41.6034C27.8683 41.758 27.7815 41.9678 27.7815 42.1866C27.7815 49.7297 33.9184 55.8667 41.4616 55.8667C49.0047 55.8667 55.1417 49.7297 55.1417 42.1866C55.1415 41.9678 55.0547 41.7579 54.9 41.6034ZM40.6642 42.5222C40.7966 42.8191 41.0913 43.0113 41.4176 43.0113H41.5057C41.832 43.0113 42.1269 42.819 42.2591 42.522C43.7931 41.1121 45.7708 40.3398 47.8672 40.3398C49.7549 40.3398 51.5453 40.9678 53.0033 42.1218C46.4704 48.114 36.3937 48.138 29.8334 42.1919C32.9974 39.6238 37.6262 39.7327 40.6642 42.5222ZM41.4615 54.2169C35.4972 54.2169 30.5337 49.8544 29.5924 44.1527C33.0238 46.9057 37.2017 48.2832 41.3802 48.2832C45.6349 48.2832 49.8889 46.8552 53.355 44.0011C52.4777 49.7769 47.4785 54.2169 41.4615 54.2169Z" fill="url(#paint0_linear_119_224)"/>
<path d="M21.6693 24.4883C21.4193 24.3397 21.1094 24.3337 20.8539 24.4725C20.7073 24.5521 17.2207 26.4687 13.3512 30.4725C9.77922 34.1685 5.21172 40.4127 3.73657 49.1716C3.45034 50.8713 3.92536 52.6019 5.04011 53.9201C6.15792 55.2419 7.79143 56 9.52186 56H16.9821C19.7889 56 22.0724 53.7166 22.0724 50.9097V25.1972C22.0725 24.9063 21.9193 24.6371 21.6693 24.4883ZM20.4229 50.9097C20.4229 52.8069 18.8794 54.3504 16.9822 54.3504H9.52197C8.27782 54.3504 7.10336 53.8053 6.29967 52.8549C5.49904 51.9083 5.15779 50.6657 5.36342 49.4457C6.76418 41.1282 11.1031 35.1837 14.4963 31.6616C16.8552 29.2131 19.0988 27.5601 20.4229 26.6794V50.9097V50.9097Z" fill="url(#paint1_linear_119_224)"/>
<path d="M13.1975 48.9509C11.089 48.9509 8.96143 49.5778 8.96143 50.9786C8.96143 51.4341 9.33068 51.8034 9.78622 51.8034C10.1904 51.8034 10.5267 51.5126 10.5972 51.1288C10.8415 50.93 11.781 50.6005 13.1975 50.6005C14.614 50.6005 15.5535 50.93 15.7978 51.1288C15.8685 51.5125 16.2047 51.8034 16.6088 51.8034C17.0644 51.8034 17.4336 51.4341 17.4336 50.9786C17.4336 49.5778 15.3059 48.9509 13.1975 48.9509Z" fill="url(#paint2_linear_119_224)"/>
<path d="M29.9347 12.8885C29.7321 12.5989 25.9487 7.27256 20.5661 4.87233L21.9953 1.8025C22.1876 1.38961 22.0087 0.898953 21.5957 0.706781C21.1829 0.5145 20.6922 0.693438 20.4999 1.10644L19.021 4.28356C18.2658 4.04556 17.4855 3.87352 16.6846 3.78481V0.824797C16.6846 0.36925 16.3154 0 15.8598 0C15.4043 0 15.035 0.36925 15.035 0.824797V3.72564C14.2044 3.75911 13.3935 3.88598 12.6073 4.08734L11.2196 1.10633C11.0273 0.693328 10.5367 0.5145 10.1239 0.706672C9.71085 0.898953 9.53203 1.3895 9.7242 1.80239L11.0266 4.60009C5.30053 6.84031 1.21821 12.5873 1.00745 12.8885C0.808715 13.1725 0.808715 13.5505 1.00745 13.8344C1.26951 14.209 7.51822 23.0069 15.4712 23.0069C23.4241 23.0069 29.6728 14.2088 29.9348 13.8343C30.1335 13.5504 30.1335 13.1725 29.9347 12.8885ZM11.0317 6.39187C12.4236 5.76581 13.9197 5.3655 15.4711 5.3655C17.0231 5.3655 18.5209 5.76778 19.915 6.39647C21.0477 7.56033 21.6717 9.09114 21.6717 10.7185C21.6717 12.3748 21.0267 13.9319 19.8556 15.103C18.6845 16.2741 17.1274 16.9192 15.471 16.9192C13.8147 16.9192 12.2575 16.2742 11.0865 15.103C8.68787 12.7043 8.67048 8.81387 11.0317 6.39187ZM15.4713 21.3575C9.36818 21.3575 4.09981 15.1443 2.71392 13.3611C3.479 12.3745 5.42959 10.0346 8.05382 8.13947C7.77 8.95803 7.62092 9.8268 7.62092 10.7186C7.62092 12.8155 8.43751 14.7868 9.9202 16.2695C11.4029 17.7523 13.3743 18.5688 15.4711 18.5688C17.5679 18.5688 19.5394 17.7522 21.022 16.2695C22.5048 14.7868 23.3213 12.8156 23.3213 10.7186C23.3213 9.82877 23.1727 8.96208 22.8902 8.14516C25.5113 10.0394 27.4621 12.3759 28.2283 13.3616C26.8414 15.1459 21.5735 21.3575 15.4713 21.3575Z" fill="url(#paint3_linear_119_224)"/>
<path d="M15.4711 6.60449C13.383 6.60449 11.6843 8.3032 11.6843 10.3913C11.6843 12.4794 13.383 14.1781 15.4711 14.1781C17.5592 14.1781 19.2579 12.4794 19.2579 10.3913C19.2579 8.3032 17.5592 6.60449 15.4711 6.60449ZM15.4711 12.5285C14.2927 12.5285 13.3339 11.5697 13.3339 10.3913C13.3339 9.21287 14.2927 8.25409 15.4711 8.25409C16.6495 8.25409 17.6083 9.21287 17.6083 10.3913C17.6083 11.5697 16.6496 12.5285 15.4711 12.5285Z" fill="url(#paint4_linear_119_224)"/>
<path d="M44.3844 18.5829C42.2964 18.5829 40.5977 20.2816 40.5977 22.3697C40.5977 24.4578 42.2964 26.1565 44.3844 26.1565C46.4725 26.1565 48.1712 24.4578 48.1712 22.3697C48.1712 20.2816 46.4725 18.5829 44.3844 18.5829ZM44.3844 24.5069C43.206 24.5069 42.2473 23.5481 42.2473 22.3697C42.2473 21.1912 43.206 20.2325 44.3844 20.2325C45.5628 20.2325 46.5216 21.1913 46.5216 22.3697C46.5216 23.5482 45.563 24.5069 44.3844 24.5069Z" fill="url(#paint5_linear_119_224)"/>
<path d="M53.9509 23.5832C54.4065 23.5832 54.7757 23.2139 54.7757 22.7584C54.7757 22.3028 54.4065 21.9336 53.9509 21.9336H51.0501C51.0166 21.103 50.8897 20.2921 50.6884 19.506L53.6694 18.1183C54.0824 17.926 54.2612 17.4354 54.069 17.0225C53.8768 16.6097 53.3862 16.4308 52.9733 16.6229L50.1756 17.9252C47.9354 12.1991 42.1884 8.1168 41.8873 7.90603C41.6034 7.70719 41.2254 7.70719 40.9414 7.90603C40.5668 8.16809 31.7688 14.4168 31.7688 22.3698C31.7688 30.3228 40.5669 36.5715 40.9414 36.8335C41.0834 36.933 41.2489 36.9825 41.4142 36.9825C41.5796 36.9825 41.7451 36.9328 41.8871 36.8335C42.1767 36.6309 47.503 32.8475 49.9032 27.4649L52.9733 28.8941C53.086 28.9466 53.2043 28.9714 53.3208 28.9714C53.6315 28.9714 53.9293 28.7949 54.069 28.4945C54.2613 28.0815 54.0824 27.5909 53.6694 27.3987L50.4922 25.9198C50.7302 25.1646 50.9022 24.3841 50.9909 23.5834H53.9509V23.5832ZM41.4138 35.1271C39.6295 33.7428 33.4183 28.4835 33.4183 22.3697C33.4183 16.2665 39.6317 10.9982 41.4148 9.61228C42.4014 10.3777 44.7412 12.3283 46.6364 14.9526C45.8178 14.6687 44.949 14.5196 44.0571 14.5196C41.9603 14.5196 39.9889 15.3362 38.5062 16.8189C37.0234 18.3016 36.2069 20.2728 36.2069 22.3698C36.2069 24.4667 37.0234 26.438 38.5062 27.9207C39.9889 29.4035 41.9603 30.22 44.0571 30.22C44.947 30.22 45.8136 30.0715 46.6306 29.7889C44.7361 32.4102 42.3993 34.3611 41.4138 35.1271ZM48.3791 26.8136C47.2153 27.9464 45.6844 28.5704 44.0569 28.5704C42.4006 28.5704 40.8435 27.9254 39.6723 26.7543C38.5013 25.5832 37.8562 24.026 37.8562 22.3698C37.8562 20.7136 38.5012 19.1565 39.6723 17.9853C40.8435 16.8142 42.4006 16.1692 44.0569 16.1692C45.6864 16.1692 47.2191 16.7947 48.3836 17.9302C49.0097 19.322 49.4101 20.8182 49.4101 22.3696C49.4102 23.9217 49.0078 25.4195 48.3791 26.8136Z" fill="url(#paint6_linear_119_224)"/>
<path d="M19.1456 31.8864C18.8976 31.5043 18.3867 31.3957 18.0047 31.6435C12.2008 35.4095 9.34142 43.3234 9.22253 43.6586C9.07017 44.0878 9.29471 44.5594 9.72401 44.7116C9.81523 44.744 9.9082 44.7593 9.99986 44.7593C10.3392 44.7593 10.6573 44.5483 10.7772 44.2102C10.8044 44.1334 13.5632 36.492 18.9027 33.0273C19.2848 32.7795 19.3935 32.2686 19.1456 31.8864Z" fill="url(#paint7_linear_119_224)"/>
<path d="M52.2858 4.60676C49.3314 1.65221 45.3973 0.0251465 41.2082 0.0251465C37.019 0.0251465 33.0851 1.65221 30.1306 4.60665C29.6462 5.09107 29.3794 5.73507 29.3794 6.42019C29.3794 7.10532 29.6462 7.74932 30.1306 8.23374C31.1308 9.23376 32.7578 9.23354 33.7576 8.23363C37.8658 4.12551 44.5506 4.12551 48.6587 8.23363C49.1431 8.71805 49.7872 8.98482 50.4723 8.98482C51.1573 8.98482 51.8014 8.71805 52.2858 8.23363C53.2858 7.23372 53.2858 5.60666 52.2858 4.60676ZM51.1194 7.06736C50.9465 7.24018 50.7167 7.33544 50.4724 7.33544C50.228 7.33544 49.998 7.24018 49.8253 7.06736C47.4496 4.69163 44.329 3.50393 41.2083 3.50393C38.0876 3.50393 34.9669 4.69174 32.5912 7.06736C32.2344 7.42415 31.654 7.42415 31.2971 7.06736C31.1241 6.89444 31.029 6.66465 31.029 6.4203C31.029 6.17596 31.1241 5.94594 31.297 5.77324C33.9398 3.1303 37.4597 1.67485 41.2082 1.67485C44.9567 1.67485 48.4765 3.1303 51.1194 5.77324C51.2924 5.94616 51.3875 6.17596 51.3875 6.4203C51.3876 6.66476 51.2924 6.89455 51.1194 7.06736Z" fill="url(#paint8_linear_119_224)"/>
<path d="M28.5727 27.0955C28.4176 26.8812 28.1691 26.7543 27.9047 26.7543C27.6402 26.7543 27.3917 26.8812 27.2366 27.0955C26.6603 27.8916 24.78 30.6 24.78 32.0264C24.78 33.7493 26.1818 35.1511 27.9047 35.1511C29.6275 35.1511 31.0293 33.7493 31.0293 32.0264C31.0292 30.6 29.1489 27.8915 28.5727 27.0955ZM27.9046 33.5013C27.0912 33.5013 26.4295 32.8396 26.4295 32.0263C26.4295 31.5419 27.1126 30.2577 27.9041 29.0392C28.6976 30.2643 29.3796 31.5558 29.3796 32.0263C29.3797 32.8397 28.718 33.5013 27.9046 33.5013Z" fill="url(#paint9_linear_119_224)"/>
</g>
<defs>
<linearGradient id="paint0_linear_119_224" x1="27.7815" y1="47.3708" x2="56.2162" y2="46.7625" gradientUnits="userSpaceOnUse">
<stop stop-color="#FCAF45"/>
<stop offset="0.197917" stop-color="#F77737"/>
<stop offset="0.395833" stop-color="#FD1D1D"/>
<stop offset="0.59375" stop-color="#C13584"/>
<stop offset="0.796875" stop-color="#833AB4"/>
<stop offset="1" stop-color="#405DE6"/>
</linearGradient>
<linearGradient id="paint1_linear_119_224" x1="3.65503" y1="40.3563" x2="22.8033" y2="40.2065" gradientUnits="userSpaceOnUse">
<stop stop-color="#FCAF45"/>
<stop offset="0.197917" stop-color="#F77737"/>
<stop offset="0.395833" stop-color="#FD1D1D"/>
<stop offset="0.59375" stop-color="#C13584"/>
<stop offset="0.796875" stop-color="#833AB4"/>
<stop offset="1" stop-color="#405DE6"/>
</linearGradient>
<linearGradient id="paint2_linear_119_224" x1="8.96143" y1="50.3925" x2="17.7564" y2="50.0416" gradientUnits="userSpaceOnUse">
<stop stop-color="#FCAF45"/>
<stop offset="0.197917" stop-color="#F77737"/>
<stop offset="0.395833" stop-color="#FD1D1D"/>
<stop offset="0.59375" stop-color="#C13584"/>
<stop offset="0.796875" stop-color="#833AB4"/>
<stop offset="1" stop-color="#405DE6"/>
</linearGradient>
<linearGradient id="paint3_linear_119_224" x1="0.858398" y1="11.6272" x2="31.2366" y2="11.1089" gradientUnits="userSpaceOnUse">
<stop stop-color="#FCAF45"/>
<stop offset="0.197917" stop-color="#F77737"/>
<stop offset="0.395833" stop-color="#FD1D1D"/>
<stop offset="0.59375" stop-color="#C13584"/>
<stop offset="0.796875" stop-color="#833AB4"/>
<stop offset="1" stop-color="#405DE6"/>
</linearGradient>
<linearGradient id="paint4_linear_119_224" x1="11.6843" y1="10.432" x2="19.5575" y2="10.3263" gradientUnits="userSpaceOnUse">
<stop stop-color="#FCAF45"/>
<stop offset="0.197917" stop-color="#F77737"/>
<stop offset="0.395833" stop-color="#FD1D1D"/>
<stop offset="0.59375" stop-color="#C13584"/>
<stop offset="0.796875" stop-color="#833AB4"/>
<stop offset="1" stop-color="#405DE6"/>
</linearGradient>
<linearGradient id="paint5_linear_119_224" x1="40.5977" y1="22.4104" x2="48.4708" y2="22.3047" gradientUnits="userSpaceOnUse">
<stop stop-color="#FCAF45"/>
<stop offset="0.197917" stop-color="#F77737"/>
<stop offset="0.395833" stop-color="#FD1D1D"/>
<stop offset="0.59375" stop-color="#C13584"/>
<stop offset="0.796875" stop-color="#833AB4"/>
<stop offset="1" stop-color="#405DE6"/>
</linearGradient>
<linearGradient id="paint6_linear_119_224" x1="31.7688" y1="22.5268" x2="55.6875" y2="22.2739" gradientUnits="userSpaceOnUse">
<stop stop-color="#FCAF45"/>
<stop offset="0.197917" stop-color="#F77737"/>
<stop offset="0.395833" stop-color="#FD1D1D"/>
<stop offset="0.59375" stop-color="#C13584"/>
<stop offset="0.796875" stop-color="#833AB4"/>
<stop offset="1" stop-color="#405DE6"/>
</linearGradient>
<linearGradient id="paint7_linear_119_224" x1="9.1748" y1="38.2062" x2="19.6791" y2="38.0986" gradientUnits="userSpaceOnUse">
<stop stop-color="#FCAF45"/>
<stop offset="0.197917" stop-color="#F77737"/>
<stop offset="0.395833" stop-color="#FD1D1D"/>
<stop offset="0.59375" stop-color="#C13584"/>
<stop offset="0.796875" stop-color="#833AB4"/>
<stop offset="1" stop-color="#405DE6"/>
</linearGradient>
<linearGradient id="paint8_linear_119_224" x1="29.3794" y1="4.55315" x2="53.9453" y2="3.68204" gradientUnits="userSpaceOnUse">
<stop stop-color="#FCAF45"/>
<stop offset="0.197917" stop-color="#F77737"/>
<stop offset="0.395833" stop-color="#FD1D1D"/>
<stop offset="0.59375" stop-color="#C13584"/>
<stop offset="0.796875" stop-color="#833AB4"/>
<stop offset="1" stop-color="#405DE6"/>
</linearGradient>
<linearGradient id="paint9_linear_119_224" x1="24.78" y1="30.9978" x2="31.277" y2="30.9329" gradientUnits="userSpaceOnUse">
<stop stop-color="#FCAF45"/>
<stop offset="0.197917" stop-color="#F77737"/>
<stop offset="0.395833" stop-color="#FD1D1D"/>
<stop offset="0.59375" stop-color="#C13584"/>
<stop offset="0.796875" stop-color="#833AB4"/>
<stop offset="1" stop-color="#405DE6"/>
</linearGradient>
<clipPath id="clip0_119_224">
<rect width="56" height="56" fill="white"/>
</clipPath>
</defs>
</svg>
