<svg width="80" height="80" viewBox="0 0 80 80" fill="none" xmlns="http://www.w3.org/2000/svg">
<g clip-path="url(#clip0_119_515)">
<path d="M62.7942 42.6821H17.3106C16.6634 42.6821 16.1389 43.2068 16.1389 43.8538C16.1389 44.5009 16.6634 45.0256 17.3106 45.0256H62.7941C63.4413 45.0256 63.9658 44.5009 63.9658 43.8538C63.9658 43.2068 63.4414 42.6821 62.7942 42.6821Z" fill="url(#paint0_linear_119_515)"/>
<path d="M62.7942 50.772H17.3106C16.6634 50.772 16.1389 51.2967 16.1389 51.9437C16.1389 52.5909 16.6634 53.1154 17.3106 53.1154H62.7941C63.4413 53.1154 63.9658 52.5907 63.9658 51.9437C63.9659 51.2965 63.4414 50.772 62.7942 50.772Z" fill="url(#paint1_linear_119_515)"/>
<path d="M63.9659 60.033C63.9659 59.3859 63.4414 58.8613 62.7942 58.8613H17.3106C16.6634 58.8613 16.1389 59.386 16.1389 60.033C16.1389 60.6802 16.6634 61.2048 17.3106 61.2048H62.7941C63.4414 61.2048 63.9659 60.6801 63.9659 60.033Z" fill="url(#paint2_linear_119_515)"/>
<path d="M17.3106 66.9512C16.6634 66.9512 16.1389 67.4759 16.1389 68.1229C16.1389 68.7699 16.6634 69.2946 17.3106 69.2946H40C40.6472 69.2946 41.1717 68.7699 41.1717 68.1229C41.1717 67.4759 40.6472 66.9512 40 66.9512H17.3106Z" fill="url(#paint3_linear_119_515)"/>
<path d="M62.7943 28.9854H46.0811C45.434 28.9854 44.9094 29.51 44.9094 30.1571C44.9094 30.8043 45.434 31.3288 46.0811 31.3288H62.7943C63.4415 31.3288 63.966 30.8041 63.966 30.1571C63.966 29.5099 63.4415 28.9854 62.7943 28.9854Z" fill="url(#paint4_linear_119_515)"/>
<path d="M62.7943 22.6318H46.0811C45.434 22.6318 44.9094 23.1565 44.9094 23.8036C44.9094 24.4506 45.434 24.9753 46.0811 24.9753H62.7943C63.4415 24.9753 63.966 24.4506 63.966 23.8036C63.966 23.1565 63.4415 22.6318 62.7943 22.6318Z" fill="url(#paint5_linear_119_515)"/>
<path d="M70.5449 66.5555C71.192 66.5555 71.7166 66.0308 71.7166 65.3838V17.8795C71.7166 16.2703 71.063 14.8244 70.0186 13.7798C57.5991 1.40531 57.9203 1.57 57.1317 1.02688C56.1705 0.360156 55.0319 0 53.8372 0H14.0811C10.8842 0 8.28345 2.60094 8.28345 5.79781V74.2022C8.28345 77.3991 10.8842 80 14.0811 80H65.9189C69.1158 80 71.7166 77.3991 71.7166 74.2022V70.8828C71.7166 70.2356 71.192 69.7111 70.5449 69.7111C69.8977 69.7111 69.3731 70.2358 69.3731 70.8828V74.2022C69.3731 76.1069 67.8236 77.6564 65.9189 77.6564H14.0811C12.1766 77.6564 10.6269 76.1069 10.6269 74.2022V5.79781C10.6269 3.89312 12.1764 2.34359 14.0811 2.34359H53.8372C54.0908 2.34359 54.3395 2.37328 54.5814 2.42625V13.0955C54.5814 15.323 56.3938 17.1352 58.6211 17.1352H69.2903C69.3433 17.3772 69.373 17.6258 69.373 17.8795V65.3838C69.3731 66.0308 69.8977 66.5555 70.5449 66.5555ZM58.6213 14.7916C57.6859 14.7916 56.925 14.0306 56.925 13.0953V4.00063L67.7159 14.7916H58.6213Z" fill="url(#paint6_linear_119_515)"/>
<path d="M17.2059 19.4775C16.5587 19.4775 16.0342 20.0022 16.0342 20.6492V31.1381C16.0342 33.2717 17.7698 35.0075 19.9036 35.0075H33.6664C35.8 35.0075 37.5357 33.2717 37.5357 31.1381V14.0725C37.5357 11.9389 35.8001 10.2031 33.6664 10.2031H19.9036C17.77 10.2031 16.0342 11.9389 16.0342 14.0725V15.1711C16.0342 15.8183 16.5587 16.3428 17.2059 16.3428C17.8531 16.3428 18.3776 15.8181 18.3776 15.1711V14.0725C18.3776 13.2313 19.0621 12.5467 19.9034 12.5467H33.6662C34.5075 12.5467 35.192 13.2313 35.192 14.0725V27.8202C34.1242 26.6159 32.8042 25.6503 31.3134 24.9966C31.9064 24.1223 32.2534 23.0681 32.2534 21.9345C32.2534 18.9192 29.8003 16.4659 26.785 16.4659C23.7696 16.4659 21.3164 18.9191 21.3164 21.9345C21.3164 23.0683 21.6632 24.1223 22.2564 24.9966C20.7656 25.6505 19.4456 26.6159 18.3778 27.8202V20.6492C18.3778 20.002 17.8532 19.4775 17.2059 19.4775ZM26.785 18.8095C28.5079 18.8095 29.9098 20.2114 29.9098 21.9345C29.9098 23.6577 28.5079 25.0595 26.785 25.0595C25.0618 25.0595 23.66 23.6577 23.66 21.9345C23.66 20.2114 25.0618 18.8095 26.785 18.8095ZM24.2276 26.7662C24.9914 27.1722 25.8615 27.4031 26.785 27.4031C27.7084 27.4031 28.5787 27.1722 29.3423 26.7662C31.9039 27.5319 33.974 29.4017 35.0001 31.8773C34.7393 32.3459 34.2395 32.6641 33.6664 32.6641H19.9036C19.3304 32.6641 18.8306 32.3461 18.5698 31.8775C19.5957 29.4017 21.6657 27.5319 24.2276 26.7662Z" fill="url(#paint7_linear_119_515)"/>
</g>
<defs>
<linearGradient id="paint0_linear_119_515" x1="16.1389" y1="43.8664" x2="62.3919" y2="31.1886" gradientUnits="userSpaceOnUse">
<stop stop-color="#FCAF45"/>
<stop offset="0.197917" stop-color="#F77737"/>
<stop offset="0.395833" stop-color="#FD1D1D"/>
<stop offset="0.59375" stop-color="#C13584"/>
<stop offset="0.796875" stop-color="#833AB4"/>
<stop offset="1" stop-color="#405DE6"/>
</linearGradient>
<linearGradient id="paint1_linear_119_515" x1="16.1389" y1="51.9563" x2="62.3919" y2="39.2784" gradientUnits="userSpaceOnUse">
<stop stop-color="#FCAF45"/>
<stop offset="0.197917" stop-color="#F77737"/>
<stop offset="0.395833" stop-color="#FD1D1D"/>
<stop offset="0.59375" stop-color="#C13584"/>
<stop offset="0.796875" stop-color="#833AB4"/>
<stop offset="1" stop-color="#405DE6"/>
</linearGradient>
<linearGradient id="paint2_linear_119_515" x1="16.1389" y1="60.0456" x2="62.392" y2="47.3677" gradientUnits="userSpaceOnUse">
<stop stop-color="#FCAF45"/>
<stop offset="0.197917" stop-color="#F77737"/>
<stop offset="0.395833" stop-color="#FD1D1D"/>
<stop offset="0.59375" stop-color="#C13584"/>
<stop offset="0.796875" stop-color="#833AB4"/>
<stop offset="1" stop-color="#405DE6"/>
</linearGradient>
<linearGradient id="paint3_linear_119_515" x1="16.1389" y1="68.1355" x2="41.6419" y2="64.4767" gradientUnits="userSpaceOnUse">
<stop stop-color="#FCAF45"/>
<stop offset="0.197917" stop-color="#F77737"/>
<stop offset="0.395833" stop-color="#FD1D1D"/>
<stop offset="0.59375" stop-color="#C13584"/>
<stop offset="0.796875" stop-color="#833AB4"/>
<stop offset="1" stop-color="#405DE6"/>
</linearGradient>
<linearGradient id="paint4_linear_119_515" x1="44.9094" y1="30.1697" x2="64.4899" y2="28.0312" gradientUnits="userSpaceOnUse">
<stop stop-color="#FCAF45"/>
<stop offset="0.197917" stop-color="#F77737"/>
<stop offset="0.395833" stop-color="#FD1D1D"/>
<stop offset="0.59375" stop-color="#C13584"/>
<stop offset="0.796875" stop-color="#833AB4"/>
<stop offset="1" stop-color="#405DE6"/>
</linearGradient>
<linearGradient id="paint5_linear_119_515" x1="44.9094" y1="23.8162" x2="64.4899" y2="21.6777" gradientUnits="userSpaceOnUse">
<stop stop-color="#FCAF45"/>
<stop offset="0.197917" stop-color="#F77737"/>
<stop offset="0.395833" stop-color="#FD1D1D"/>
<stop offset="0.59375" stop-color="#C13584"/>
<stop offset="0.796875" stop-color="#833AB4"/>
<stop offset="1" stop-color="#405DE6"/>
</linearGradient>
<linearGradient id="paint6_linear_119_515" x1="8.28345" y1="40.4301" x2="74.2305" y2="39.7278" gradientUnits="userSpaceOnUse">
<stop stop-color="#FCAF45"/>
<stop offset="0.197917" stop-color="#F77737"/>
<stop offset="0.395833" stop-color="#FD1D1D"/>
<stop offset="0.59375" stop-color="#C13584"/>
<stop offset="0.796875" stop-color="#833AB4"/>
<stop offset="1" stop-color="#405DE6"/>
</linearGradient>
<linearGradient id="paint7_linear_119_515" x1="16.0342" y1="22.7387" x2="38.3874" y2="22.4784" gradientUnits="userSpaceOnUse">
<stop stop-color="#FCAF45"/>
<stop offset="0.197917" stop-color="#F77737"/>
<stop offset="0.395833" stop-color="#FD1D1D"/>
<stop offset="0.59375" stop-color="#C13584"/>
<stop offset="0.796875" stop-color="#833AB4"/>
<stop offset="1" stop-color="#405DE6"/>
</linearGradient>
<clipPath id="clip0_119_515">
<rect width="80" height="80" fill="white"/>
</clipPath>
</defs>
</svg>
