<svg width="30" height="30" viewBox="0 0 30 30" fill="none" xmlns="http://www.w3.org/2000/svg">
<path d="M28.6324 8.48453C28.8205 7.98314 28.6194 7.38502 28.5326 6.88375C28.4033 6.13774 28.4111 5.25157 28.1594 4.53708C28.0149 4.12733 27.7013 3.957 27.296 3.88212C26.5574 3.74565 25.8003 3.68812 25.0585 3.56062C23.6162 3.31271 22.1825 3.01429 20.7614 2.66454C19.1945 2.27882 17.6707 1.75593 16.113 1.34355C14.9853 1.04502 13.7911 1.01877 12.8449 1.71796C12.5975 0.620447 11.9965 -0.255176 10.5576 0.0679675C8.97563 0.423221 7.33401 1.42863 6.33979 2.70732C5.73769 3.48169 5.1071 4.84944 5.44993 5.86018C4.32224 6.39719 3.169 6.93819 2.10465 7.58131C1.06725 8.2082 1.2442 9.25293 1.43404 10.3064C1.53306 10.856 1.63818 11.4699 1.87941 11.9778C2.02484 12.284 2.23033 12.4634 2.48755 12.5856C2.90925 15.6021 3.3705 18.6098 3.86316 21.616C3.98245 22.3438 4.10175 23.0716 4.22099 23.7995C4.32318 24.4231 4.32734 25.2125 4.6796 25.7561C4.96325 26.1938 5.43985 26.3466 5.91657 26.4882C6.69317 26.719 7.46444 26.9643 8.23629 27.2104C8.38096 27.2566 8.50131 27.2238 8.58973 27.1516C8.6519 27.2516 8.72913 27.3445 8.82762 27.427C9.27586 27.8027 9.9702 27.9662 10.5131 28.1492C11.0282 28.3229 11.9144 28.7761 12.4245 28.3908C12.4497 28.3717 12.4727 28.3515 12.4941 28.3304C13.429 28.6525 14.3684 28.9396 15.3251 29.2001C16.3076 29.4675 17.3645 29.9 18.3813 29.9925C19.3333 30.0791 20.1055 29.3993 20.8393 28.8858C21.679 28.298 22.5004 27.6844 23.3047 27.049C24.9283 25.7665 26.5777 24.4137 27.9918 22.8984C28.6671 22.1749 28.5552 21.3202 28.5468 20.3871C28.5363 19.2217 28.514 18.0564 28.4816 16.8914C28.4101 14.3168 28.283 11.7449 28.1025 9.17558C28.3313 8.97502 28.5321 8.75177 28.6324 8.48453ZM21.3825 3.75597C23.1023 4.1462 24.8343 4.45534 26.5753 4.75299C24.9252 6.13709 23.2496 7.4885 21.5583 8.82209C20.6674 9.52457 19.7798 10.2353 18.8671 10.9093C18.2911 11.3346 17.8458 11.4448 17.1557 11.2808C16.5778 11.1434 16.004 10.9861 15.4292 10.8368C14.2699 10.5357 13.1103 10.2369 11.948 9.95382C12.1158 9.84361 12.2853 9.74318 12.4244 9.64539C12.7443 9.4205 13.0642 9.19556 13.3841 8.97062C13.4547 9.11945 13.5411 9.26318 13.6492 9.39976C14.1226 9.99806 14.8374 10.1754 15.5718 10.0523C17.3391 9.75607 19.0714 8.25736 20.1674 6.90748C20.7312 6.21303 21.5945 4.79038 21.3825 3.75597ZM13.1711 8.29762C12.5995 8.6766 12.027 9.05435 11.4567 9.43509C11.3115 9.53212 11.1662 9.6291 11.0312 9.73456C10.033 9.49996 9.03217 9.28005 8.02711 9.08365C8.12045 8.99488 8.24063 8.91414 8.38975 8.82039C8.777 8.57693 9.16805 8.3398 9.54826 8.08551C10.2078 7.64436 10.8694 7.20777 11.537 6.77916C11.948 7.11244 12.5934 7.18 13.0945 7.13705C13.0912 7.52746 13.1006 7.92092 13.1711 8.29762ZM11.2113 10.8258C11.2291 10.6989 11.2805 10.5848 11.3524 10.4799C13.0728 10.8972 14.7843 11.3472 16.4884 11.7848C16.9889 11.9134 17.4305 12.0218 17.8619 12.0105C17.8858 13.101 17.8588 14.2199 17.9406 15.3122C17.7302 15.2743 17.5209 15.2063 17.3264 15.1559C16.669 14.9856 16.0135 14.8085 15.3591 14.6274C14.0565 14.267 12.7645 13.8727 11.4568 13.5318C11.4543 13.5062 11.4517 13.4806 11.4491 13.455L11.3065 12.0422C11.2679 11.6588 11.1568 11.2141 11.2113 10.8258ZM19.7353 3.55657C20.0413 3.5837 20.3641 3.64259 20.4396 3.96532C20.5046 4.24264 20.3789 4.59462 20.2889 4.85805C20.0715 5.4952 19.6784 6.06338 19.2312 6.56049C18.4277 7.45375 17.4215 8.32105 16.3353 8.84728C15.7139 9.14834 14.8632 9.44376 14.2942 8.90213C13.7922 8.42441 13.7401 7.67271 13.7431 7.00861C14.3103 6.83043 14.8166 6.48631 15.1902 6.0158C15.2659 6.4017 15.3417 6.7876 15.4175 7.1735C15.4885 7.53537 16.0266 7.37869 15.9663 7.02221C15.8967 6.61117 15.8272 6.20014 15.7576 5.78911C16.2343 5.69061 16.7385 5.73098 17.2118 5.81993C17.5337 5.9312 17.6859 5.39594 17.3531 5.30747C16.8458 5.17253 16.3618 5.16737 15.8617 5.21032C15.799 5.20868 15.7361 5.2085 15.6731 5.20856C15.7453 5.03518 15.8 4.85565 15.825 4.67612C15.8646 4.66774 15.9052 4.6552 15.9474 4.63335C17.0982 4.03546 18.3945 3.43757 19.7353 3.55657ZM17.9694 2.85884C17.1667 3.06122 16.3567 3.39034 15.6833 3.85909C15.6645 3.82669 15.6458 3.79423 15.6231 3.7627C15.5938 3.72181 15.5616 3.68231 15.5275 3.64399C16.1478 3.34189 16.7695 3.0304 17.359 2.67363C17.5625 2.73509 17.7655 2.79855 17.9694 2.85884ZM13.1742 2.52427C14.0947 1.72693 15.394 2.07005 16.4363 2.39343C16.4655 2.40245 16.4948 2.41101 16.524 2.42003C16.0417 2.69654 15.571 2.9973 15.1051 3.29653C14.5996 2.98247 13.9294 2.8337 13.4074 2.90706C13.2612 2.92763 13.1269 2.96677 13.0007 3.01827C12.9952 2.88796 12.9871 2.75554 12.9763 2.62271C13.0437 2.60882 13.1112 2.57888 13.1742 2.52427ZM14.9512 4.32386C14.9604 4.3378 14.9705 4.34987 14.9811 4.36077C15.1339 5.05276 13.9711 5.98516 13.4224 6.16973C12.9529 6.32764 12.0983 6.4542 11.9239 5.80809C11.8219 5.42999 12.0953 4.80286 12.3022 4.50093C12.8972 3.6328 14.3076 3.34892 14.9512 4.32386ZM7.07714 3.15532C7.82045 2.25861 8.86166 1.62773 9.93744 1.20826C10.5271 0.978336 11.3843 0.598591 11.8531 1.2208C12.2563 1.75599 12.4722 2.60331 12.5681 3.27069C12.4666 3.34962 12.3713 3.43698 12.2825 3.53255C12.226 3.57233 12.1707 3.61505 12.1169 3.66046C11.98 3.36526 11.8211 3.08097 11.6242 2.81987C11.4083 2.53341 10.9849 2.77071 11.1398 3.103C11.2779 3.39919 11.3979 3.69784 11.4983 4.00557C11.1687 4.03604 10.8379 4.09581 10.5147 4.14397C10.101 4.20561 10.2685 4.86409 10.6905 4.78182C10.9208 4.73694 11.155 4.7019 11.388 4.66247C11.2272 5.02223 11.1139 5.43649 11.119 5.82145C9.83291 6.20717 8.57039 6.49955 7.21975 6.21678C5.54292 5.86586 6.32093 4.06757 7.07714 3.15532ZM3.32498 7.83408C4.11968 7.33246 4.91655 6.83576 5.71601 6.34235C5.83231 6.48438 5.9795 6.6124 6.16266 6.72192C6.86538 7.14203 7.89141 7.181 8.68694 7.17502C9.09692 7.17192 9.51375 7.13699 9.92473 7.06756C9.71672 7.18334 9.50912 7.29965 9.30053 7.41461C8.67534 7.7592 7.88573 8.08797 7.37069 8.59011C7.26634 8.69189 7.19128 8.80117 7.13731 8.91625C5.61991 8.6425 4.09161 8.4291 2.54714 8.30482C2.79418 8.11252 3.11521 7.9665 3.32498 7.83408ZM2.39011 10.288C2.30111 9.86816 2.11361 9.2892 2.19013 8.84283C3.80732 8.98714 5.41396 9.22791 7.01163 9.53042C7.00776 9.68939 7.01749 9.85316 7.02739 10.0189C7.08182 10.9275 7.14598 11.8357 7.2085 12.7438C6.26884 12.5813 5.33403 12.3934 4.40673 12.1704C4.03583 12.0812 3.17802 11.9973 2.87785 11.7379C2.55546 11.4594 2.47449 10.6861 2.39011 10.288ZM6.50761 25.787C6.2437 25.699 5.8489 25.6315 5.62396 25.457C5.30743 25.2114 5.29589 24.8167 5.23015 24.4609C4.97831 23.098 4.73509 21.7335 4.48759 20.3698C4.02576 17.8257 3.52865 15.2908 3.00822 12.7586C4.37902 13.0978 5.76517 13.3803 7.15975 13.6012C7.19872 13.6074 7.23563 13.6076 7.27126 13.6049C7.49971 16.801 7.78131 19.993 8.06584 23.1844C8.14243 24.0437 8.22229 24.9027 8.30168 25.7617C8.32008 25.9608 8.33022 26.1684 8.35407 26.3719C7.73754 26.1799 7.12003 25.9912 6.50761 25.787ZM11.8704 27.7203C11.7622 27.7724 11.2843 27.5429 11.1846 27.5103C10.6324 27.3293 9.68256 27.149 9.32684 26.6774C9.10448 26.3826 9.13096 25.8619 9.09217 25.504C9.04559 25.0746 8.99977 24.6451 8.9543 24.2155C8.62688 21.1237 8.34528 18.0287 8.11266 14.9283C7.98422 13.2163 7.78811 11.478 7.78108 9.76041C7.78096 9.73275 7.78172 9.70667 7.78272 9.68095C8.70815 9.86734 9.63059 10.0718 10.5504 10.2884C10.5122 10.3649 10.4786 10.445 10.4561 10.5345C10.3055 11.1345 10.4692 11.8248 10.5298 12.4275C10.6114 13.241 10.6931 14.0544 10.7747 14.8678C11.0839 17.9477 11.3974 21.0271 11.7151 24.1062C11.7891 24.8237 11.8593 25.5419 11.9091 26.2616C11.9353 26.6406 11.9677 27.0249 11.9694 27.4052C11.9701 27.5797 12.0166 27.6497 11.8704 27.7203ZM18.4622 29.0947C18.3465 29.098 18.2248 29.0886 18.0941 29.0628C17.4432 28.9341 16.799 28.7541 16.1543 28.5973C15.0109 28.3192 13.8739 28.0591 12.7186 27.8525C12.7551 27.6218 12.7344 27.3707 12.7269 27.1508C12.6967 26.2608 12.6265 25.3728 12.5457 24.4862C12.3901 22.7774 12.2177 21.0701 12.0454 19.363C11.8734 17.6582 11.7013 15.9535 11.5293 14.2487C12.7873 14.7445 14.0754 15.1545 15.369 15.5497C16.1747 15.7958 17.1658 16.2533 18.0857 16.2878C18.3146 20.5587 18.514 24.8159 18.4622 29.0947ZM27.5694 21.8476C27.471 22.1715 27.1495 22.4159 26.9198 22.6451C26.4729 23.0912 26.0176 23.5291 25.5544 23.9583C23.729 25.6498 21.7693 27.1929 19.7022 28.5788C19.5343 28.6914 19.3759 28.7941 19.2173 28.8779C19.3589 24.6867 19.206 20.4484 18.5641 16.3026C18.5836 16.2891 18.6022 16.274 18.6183 16.2555C18.7634 16.2297 18.9053 16.1896 19.0427 16.1311C21.5781 15.0507 23.6955 12.8589 25.7692 11.1085C26.2605 10.6938 26.7518 10.2791 27.2431 9.86435C27.3808 12.2479 27.4828 14.6339 27.5373 17.0207C27.5689 18.4016 27.5819 19.7827 27.5901 21.1638C27.5913 21.3686 27.6311 21.6447 27.5694 21.8476ZM27.7692 8.01174C27.6887 8.48406 26.8438 8.98041 26.5043 9.26992C26.0082 9.69296 25.5119 10.116 25.0158 10.539C23.2037 12.0839 21.4176 13.6871 19.3418 14.8762C19.1365 14.9938 18.9116 15.142 18.6811 15.2391C18.6306 14.1388 18.4708 13.025 18.3699 11.9346C18.586 11.8731 18.8042 11.7724 19.0309 11.617C20.0025 10.951 20.9237 10.1904 21.8533 9.46726C23.6836 8.04349 25.4686 6.55932 27.2315 5.05299C27.239 5.096 27.2468 5.14774 27.2589 5.21172C27.3154 5.51055 27.3782 5.80832 27.4378 6.10657C27.4975 6.40487 27.5594 6.70287 27.6137 7.00223C27.6662 7.29221 27.8197 7.71525 27.7692 8.01174Z" fill="url(#paint0_linear_408_639)"/>
<defs>
<linearGradient id="paint0_linear_408_639" x1="1.28906" y1="15.1613" x2="29.7959" y2="14.8114" gradientUnits="userSpaceOnUse">
<stop stop-color="#FCAF45"/>
<stop offset="0.197917" stop-color="#F77737"/>
<stop offset="0.395833" stop-color="#FD1D1D"/>
<stop offset="0.59375" stop-color="#C13584"/>
<stop offset="0.796875" stop-color="#833AB4"/>
<stop offset="1" stop-color="#405DE6"/>
</linearGradient>
</defs>
</svg>
