<svg width="20" height="20" viewBox="0 0 20 20" fill="none" xmlns="http://www.w3.org/2000/svg">
<g clip-path="url(#clip0_434_1092)">
<path d="M8.62371 14.7162L6.78518 16.5547C5.86447 17.4754 4.36637 17.4757 3.4452 16.5547C2.52464 15.634 2.52494 14.1359 3.44565 13.2152L7.1372 9.52362C7.99032 8.67051 9.3395 8.60749 10.2652 9.33548C10.3385 9.39301 10.4091 9.45572 10.4767 9.52332C10.8867 9.93317 11.5224 9.93988 11.9239 9.53827L13.0808 8.38135C12.8907 8.09281 12.6709 7.82365 12.4236 7.5763C12.0749 7.22779 11.6883 6.93986 11.2763 6.71327C9.66435 5.82414 7.6708 5.86854 6.09655 6.84632C5.76956 7.04942 5.46027 7.2928 5.17645 7.57676L1.49864 11.2546C-0.499495 13.2527 -0.499495 16.5037 1.49833 18.5017C3.49662 20.4998 6.74749 20.4998 8.74578 18.5017L12.0543 15.1932C10.8986 15.3461 9.70906 15.1874 8.62371 14.7162Z" fill="url(#paint0_linear_434_1092)"/>
<path d="M18.5011 1.49845C16.5031 -0.499533 13.2522 -0.499533 11.254 1.49875L7.94571 4.807C9.1014 4.65395 10.291 4.81265 11.3763 5.28399L13.215 3.44531C14.1357 2.5246 15.6335 2.5246 16.5542 3.44531C17.4752 4.36633 17.4752 5.86413 16.5545 6.78484L12.8625 10.4768C12.0189 11.3205 10.6799 11.3788 9.75524 10.6543C9.67956 10.5956 9.60723 10.5313 9.5378 10.4619C9.13467 10.0588 8.479 10.0591 8.07586 10.4622L6.91895 11.6191C7.10922 11.907 7.32925 12.1765 7.57614 12.4234C7.92724 12.7745 8.31726 13.0638 8.73214 13.2916C10.3529 14.1814 12.3566 14.1293 13.9319 13.1361C14.2483 12.9367 14.5479 12.6991 14.8231 12.4237L18.5011 8.74589C20.4992 6.74761 20.4992 3.49673 18.5011 1.49845Z" fill="url(#paint1_linear_434_1092)"/>
</g>
<defs>
<linearGradient id="paint0_linear_434_1092" x1="1.98142e-08" y1="13.1141" x2="13.5986" y2="12.9425" gradientUnits="userSpaceOnUse">
<stop stop-color="#FCAF45"/>
<stop offset="0.197917" stop-color="#F77737"/>
<stop offset="0.395833" stop-color="#FD1D1D"/>
<stop offset="0.59375" stop-color="#C13584"/>
<stop offset="0.796875" stop-color="#833AB4"/>
<stop offset="1" stop-color="#405DE6"/>
</linearGradient>
<linearGradient id="paint1_linear_434_1092" x1="6.91895" y1="7.03591" x2="20.5175" y2="6.86432" gradientUnits="userSpaceOnUse">
<stop stop-color="#FCAF45"/>
<stop offset="0.197917" stop-color="#F77737"/>
<stop offset="0.395833" stop-color="#FD1D1D"/>
<stop offset="0.59375" stop-color="#C13584"/>
<stop offset="0.796875" stop-color="#833AB4"/>
<stop offset="1" stop-color="#405DE6"/>
</linearGradient>
<clipPath id="clip0_434_1092">
<rect width="20" height="20" fill="white"/>
</clipPath>
</defs>
</svg>
