<svg width="138" height="138" viewBox="0 0 138 138" fill="none" xmlns="http://www.w3.org/2000/svg">
<path d="M17.25 23.7188H12.9375V28.0312H17.25V23.7188Z" fill="url(#paint0_linear_434_914)"/>
<path d="M17.25 32.3438H12.9375V58.2188H17.25V32.3438Z" fill="url(#paint1_linear_434_914)"/>
<path d="M124.841 74.2095L118.982 73.1537L110.13 71.5338L109.969 71.505V63.9484C112.618 62.4325 114.912 60.3672 116.697 57.8914C118.483 55.4156 119.717 52.5864 120.319 49.594H120.75C122.648 49.5946 124.494 48.9687 126 47.8133C127.506 46.6579 128.589 45.0378 129.081 43.2041C129.572 41.3705 129.445 39.4259 128.718 37.6721C127.992 35.9182 126.707 34.4532 125.062 33.5043V28.0315C125.055 21.7431 122.554 15.7142 118.108 11.2677C113.661 6.82108 107.632 4.31986 101.344 4.31272H97.0312C93.535 4.29747 90.0795 5.06404 86.9177 6.55635C83.7559 8.04866 80.9676 10.229 78.757 12.9377H62.0585L60.3106 5.94608C60.194 5.47956 59.9248 5.0654 59.5457 4.76945C59.1667 4.4735 58.6996 4.31274 58.2188 4.31272H40.9688C40.4879 4.31274 40.0208 4.4735 39.6418 4.76945C39.2627 5.0654 38.9935 5.47956 38.8769 5.94608L37.129 12.9377H6.46875C5.89688 12.9377 5.34843 13.1649 4.94405 13.5693C4.53968 13.9737 4.3125 14.5221 4.3125 15.094V71.1565C4.3125 71.7284 4.53968 72.2768 4.94405 72.6812C5.34843 73.0856 5.89688 73.3127 6.46875 73.3127H12.9375V79.7815C12.9375 80.3534 13.1647 80.9018 13.5691 81.3062C13.9734 81.7106 14.5219 81.9377 15.0938 81.9377H19.879L13.0019 109.446C12.9225 109.764 12.9165 110.096 12.9845 110.416C13.0525 110.737 13.1926 111.038 13.3942 111.296C13.5959 111.554 13.8538 111.763 14.1482 111.907C14.4427 112.051 14.7661 112.125 15.0938 112.125H23.7188C24.1996 112.125 24.6667 111.964 25.0457 111.669C25.4248 111.373 25.694 110.958 25.8106 110.492L28.6366 99.1877H54.1416C54.1534 99.8656 54.1715 100.581 54.1955 101.344H53.9062C53.3344 101.344 52.7859 101.571 52.3815 101.976C51.9772 102.38 51.75 102.928 51.75 103.5V116.438C51.75 117.01 51.9772 117.558 52.3815 117.962C52.7859 118.367 53.3344 118.594 53.9062 118.594H54.9757L55.5905 131.633C55.6167 132.187 55.855 132.709 56.2561 133.092C56.6571 133.474 57.1901 133.688 57.7444 133.688H66.3694C66.83 133.687 67.2785 133.539 67.6489 133.266C68.0194 132.992 68.2924 132.606 68.4281 132.166C69.8635 133.159 71.5675 133.689 73.3125 133.688H79.7812C79.9476 133.688 80.1134 133.669 80.2753 133.63L99.3061 129.151L118.094 133.629C118.258 133.668 118.425 133.688 118.594 133.688H125.062C127.349 133.685 129.542 132.776 131.158 131.159C132.775 129.542 133.685 127.349 133.688 125.063V84.8271C133.687 82.3022 132.802 79.8572 131.186 77.9173C129.57 75.9775 127.325 74.6655 124.841 74.2095ZM32.9491 81.9377H43.125V86.2502H31.871L32.9491 81.9377ZM47.4375 81.9377H51.75V86.2502H47.4375V81.9377ZM55.1954 43.1252H57.1293C59.1453 43.1238 61.1283 43.6365 62.8909 44.6148C64.6536 45.5931 66.1377 47.0046 67.203 48.7161C66.1304 48.8888 65.1072 49.2892 64.2023 49.8905L64.0094 50.0193C63.4347 50.4039 62.7588 50.6093 62.0673 50.6093C61.3757 50.6093 60.6998 50.4039 60.1251 50.0193C58.5099 48.9459 56.5532 48.5117 54.6356 48.801C54.7545 48.4506 54.8857 48.1059 55.0326 47.7633C55.6649 46.292 55.723 44.6372 55.1954 43.1252ZM57.7317 53.61C59.0142 54.4682 60.5226 54.9263 62.0658 54.9263C63.6089 54.9263 65.1173 54.4682 66.3998 53.61L66.5925 53.4812C67.2506 53.0514 68.0379 52.8644 68.8189 52.9523C69.3089 55.7628 68.7732 58.6558 67.3095 61.1046L65.1578 64.6877H58.7899L57.0299 62.4875C55.0081 59.9642 53.8922 56.8351 53.861 53.6019C54.4357 53.2231 55.1092 53.0218 55.7976 53.0233C56.4859 53.0247 57.1586 53.2288 57.7317 53.61ZM106.405 74.9472L99.1875 86.4944L91.9697 74.9458C92.2047 74.7435 92.3933 74.4929 92.5226 74.2111C92.6519 73.9292 92.7188 73.6228 92.7188 73.3127V65.8467C96.9288 67.1762 101.446 67.1762 105.656 65.8467V73.3127C105.656 73.6228 105.723 73.9292 105.852 74.2111C105.982 74.4929 106.17 74.7435 106.405 74.9458V74.9472ZM73.5322 74.2111C72.0413 74.4784 70.6244 75.0601 69.3757 75.9175C69.3128 75.0451 69.2456 74.1773 69.1741 73.3141H78.5112L73.5322 74.2111ZM59.6885 69.0002H64.4449C65.0228 74.5483 65.408 80.3354 65.5926 86.2502H58.5422C58.7255 80.3346 59.1106 74.5477 59.6885 69.0002ZM70.0132 97.0641C70.0544 94.3262 70.0401 91.4783 69.9698 88.3582C69.9698 88.3006 69.963 88.244 69.9574 88.1874C69.9074 86.0545 69.8315 83.9381 69.7296 81.8383C69.7725 81.7574 69.8172 81.6766 69.8671 81.603C69.8857 81.576 69.9067 81.5415 69.924 81.5127C70.0039 81.373 70.0908 81.2374 70.1843 81.1065C70.2045 81.0795 70.2239 81.0539 70.2428 81.0273C71.2029 79.6686 72.6605 78.7438 74.2987 78.454L77.625 77.8543V91.9597C75.2317 95.0758 73.8647 98.8579 73.7128 102.784L72.5039 101.816C72.1214 101.51 71.6461 101.344 71.1562 101.344H69.9299C69.9703 100.072 69.9973 98.6837 70.0132 97.0641ZM78.3102 106.462C77.8672 104.301 77.9179 102.067 78.4583 99.9276C78.9987 97.7884 80.015 95.7987 81.4313 94.1068C81.7582 93.7182 81.9374 93.2268 81.9375 92.719V77.0724L87.5694 76.0423L97.359 91.7055C97.5528 92.0157 97.8223 92.2714 98.1422 92.4487C98.4621 92.626 98.8218 92.719 99.1875 92.719C99.5532 92.719 99.9129 92.626 100.233 92.4487C100.553 92.2714 100.822 92.0157 101.016 91.7055L110.806 76.0423L116.438 77.0724V92.719C116.438 93.2337 116.622 93.7314 116.957 94.1222C117.382 94.612 117.761 95.14 118.089 95.6995C118.128 95.768 118.172 95.8343 118.219 95.8981C119.152 97.4189 119.793 99.1002 120.11 100.856C120.116 100.934 120.126 101.011 120.14 101.088C120.286 101.884 120.36 102.691 120.361 103.5H118.594C118.104 103.5 117.629 103.667 117.246 103.973L106.959 112.203L102.654 112.653L82.8138 110.065L78.3102 106.462ZM119.35 107.813H129.375V116.138L111.807 113.847L119.35 107.813ZM129.375 84.8271V103.5H124.672C124.671 102.527 124.59 101.556 124.43 100.597C124.424 100.413 124.396 100.23 124.345 100.052C123.927 97.7595 123.082 95.5654 121.856 93.5836C121.812 93.5058 121.764 93.4306 121.712 93.3586C121.419 92.8713 121.098 92.4018 120.75 91.9524V77.8543L124.068 78.4521C125.559 78.7267 126.905 79.5148 127.875 80.6795C128.844 81.8442 129.375 83.3117 129.375 84.8271ZM106.848 60.731C104.329 61.9796 101.542 62.5934 98.7315 62.519C95.9206 62.4445 93.1706 61.6841 90.7208 60.3039C88.2711 58.9236 86.1958 56.9655 84.6758 54.5999C83.1558 52.2344 82.2371 49.5331 81.9998 46.7313C83.6517 46.3789 85.2709 45.8874 86.84 45.2621C88.4172 44.6508 89.939 43.9054 91.3886 43.0339C96.1891 40.1586 100.127 36.0444 102.79 31.1227L107.207 22.9204C109.123 27.8685 112.306 32.2258 116.438 35.5549V45.2815C116.448 48.4968 115.554 51.6502 113.859 54.3821C112.163 57.114 109.734 59.3144 106.848 60.7324V60.731ZM120.75 45.2815V36.6565C121.894 36.6565 122.991 37.1108 123.799 37.9196C124.608 38.7283 125.062 39.8252 125.062 40.969C125.062 42.1127 124.608 43.2096 123.799 44.0184C122.991 44.8271 121.894 45.2815 120.75 45.2815ZM81.5286 16.3877C83.323 13.9689 85.6612 12.006 88.3542 10.6576C91.0472 9.30915 94.0195 8.61295 97.0312 8.62522H101.344C106.489 8.631 111.422 10.6774 115.06 14.3156C118.698 17.9537 120.744 22.8864 120.75 28.0315V32.344H119.338C114.496 28.5184 111.175 23.0939 109.97 17.0424L109.927 16.8268C109.84 16.3917 109.621 15.9941 109.299 15.6882C108.978 15.3823 108.57 15.1831 108.131 15.1176C107.692 15.0521 107.244 15.1235 106.847 15.3223C106.45 15.521 106.125 15.8372 105.914 16.2279L98.9951 29.0746C96.702 33.3129 93.3108 36.8562 89.1771 39.3329C87.9372 40.0794 86.6353 40.7176 85.2859 41.2407L85.2589 41.2509C83.4034 41.9977 81.4647 42.5184 79.4848 42.8018C79.4635 42.8048 79.4425 42.808 79.4212 42.8118C78.8422 42.9096 78.2422 42.9848 77.6247 43.0371V28.0315C77.6209 27.2894 77.6651 26.5478 77.7571 25.8113C77.7587 25.8006 77.76 25.7898 77.7611 25.779C78.1519 22.3673 79.4532 19.1236 81.5286 16.3877ZM56.5353 8.62522L57.6134 12.9377H53.4335L52.3554 8.62522H56.5353ZM42.6522 8.62522H46.8321L45.754 12.9377H41.5741L42.6522 8.62522ZM8.625 17.2502H75.911C74.6287 19.7555 73.8053 22.4701 73.4796 25.2655C73.3638 26.1829 73.3079 27.1068 73.3125 28.0315V33.5132C71.6708 34.4629 70.3882 35.9274 69.6634 37.68C68.9385 39.4326 68.8119 41.3752 69.3032 43.2071C69.7944 45.0389 70.8761 46.6575 72.3806 47.8122C73.8851 48.9669 75.7285 49.5932 77.625 49.594H78.0563C78.6575 52.5866 79.8922 55.4158 81.6773 57.8917C83.4625 60.3676 85.7569 62.4329 88.4062 63.9487V69.0002H68.7763C68.7191 68.4423 68.6617 67.8849 68.6008 67.3316L71.0064 63.3223C72.4799 60.8666 73.2753 58.0638 73.3114 55.2002C73.3476 52.3365 72.6232 49.5146 71.2121 47.0225C69.8011 44.5303 67.754 42.4573 65.2799 41.015C62.8057 39.5726 59.9932 38.8127 57.1293 38.8127H49.1285C48.5567 38.8127 48.0082 39.0399 47.6038 39.4443C47.1995 39.8487 46.9723 40.3971 46.9723 40.969C46.9723 41.5408 47.1995 42.0893 47.6038 42.4937C48.0082 42.8981 48.5567 43.1252 49.1285 43.1252C49.4776 43.1252 49.8212 43.2118 50.1285 43.3772C50.4359 43.5427 50.6974 43.7818 50.8895 44.0732C51.0817 44.3646 51.1985 44.6992 51.2295 45.0468C51.2606 45.3945 51.2048 45.7445 51.0673 46.0653C49.7256 49.1874 49.2583 52.6157 49.7155 55.983C50.1726 59.3504 51.5369 62.53 53.6623 65.1815L55.514 67.4962C55.4601 67.9954 55.4074 68.4967 55.3561 69.0002H8.625V17.2502ZM17.25 73.3127H54.9574C54.839 74.7391 54.7319 76.1766 54.6361 77.6252H17.25V73.3127ZM22.0353 107.813H17.8554L24.3241 81.9377H28.504L22.0353 107.813ZM30.7929 90.5627H54.131C54.1127 91.9163 54.1003 93.2715 54.1003 94.6165C54.1003 94.7017 54.1003 94.7895 54.1003 94.8752H29.7147L30.7929 90.5627ZM58.4406 90.5627H65.6977C65.7311 92.8222 65.6567 100.066 65.615 101.344H58.5093C58.4584 99.7238 58.422 91.9155 58.4406 90.5627ZM59.8014 129.375L59.2931 118.594H64.8206L64.3123 129.375H59.8014ZM79.5311 129.375H73.3125C72.1692 129.374 71.0731 128.919 70.2646 128.111C69.4561 127.302 69.0014 126.206 69 125.063V121.57H68.9976L69.0916 119.579L71.7869 122.274C72.0698 122.557 72.4257 122.755 72.8149 122.847L79.2807 124.378L89.9528 126.921L79.5311 129.375ZM125.062 129.375H118.847L80.278 120.184L74.4046 118.794L70.5234 114.914C70.1196 114.51 69.5716 114.282 69 114.281H56.0625V105.656H70.3997L80.5898 113.809C80.8975 114.055 81.2669 114.212 81.6577 114.263L129.375 120.487V125.063C129.374 126.206 128.919 127.302 128.11 128.111C127.302 128.919 126.206 129.374 125.062 129.375Z" fill="url(#paint2_linear_434_914)"/>
<path d="M108.891 40.9688C107.104 40.9688 105.656 39.5207 105.656 37.7344C105.656 35.9481 107.104 34.5 108.891 34.5C110.677 34.5 112.125 35.9481 112.125 37.7344C112.125 39.5207 110.677 40.9688 108.891 40.9688Z" fill="url(#paint3_linear_434_914)"/>
<path d="M99.1875 49.5938C98.6158 49.5931 98.0677 49.3657 97.6635 48.9615C97.2593 48.5573 97.0319 48.0092 97.0312 47.4375H92.7188C92.7188 49.1531 93.4003 50.7985 94.6134 52.0116C95.8265 53.2247 97.4719 53.9062 99.1875 53.9062C100.903 53.9062 102.548 53.2247 103.762 52.0116C104.975 50.7985 105.656 49.1531 105.656 47.4375H101.344C101.343 48.0092 101.116 48.5573 100.711 48.9615C100.307 49.3657 99.7592 49.5931 99.1875 49.5938Z" fill="url(#paint4_linear_434_914)"/>
<defs>
<linearGradient id="paint0_linear_434_914" x1="12.9375" y1="25.8982" x2="17.4206" y2="25.838" gradientUnits="userSpaceOnUse">
<stop stop-color="#FCAF45"/>
<stop offset="0.197917" stop-color="#F77737"/>
<stop offset="0.395833" stop-color="#FD1D1D"/>
<stop offset="0.59375" stop-color="#C13584"/>
<stop offset="0.796875" stop-color="#833AB4"/>
<stop offset="1" stop-color="#405DE6"/>
</linearGradient>
<linearGradient id="paint1_linear_434_914" x1="12.9375" y1="45.4204" x2="17.4214" y2="45.4103" gradientUnits="userSpaceOnUse">
<stop stop-color="#FCAF45"/>
<stop offset="0.197917" stop-color="#F77737"/>
<stop offset="0.395833" stop-color="#FD1D1D"/>
<stop offset="0.59375" stop-color="#C13584"/>
<stop offset="0.796875" stop-color="#833AB4"/>
<stop offset="1" stop-color="#405DE6"/>
</linearGradient>
<linearGradient id="paint2_linear_434_914" x1="4.3125" y1="69.6957" x2="138.806" y2="67.8894" gradientUnits="userSpaceOnUse">
<stop stop-color="#FCAF45"/>
<stop offset="0.197917" stop-color="#F77737"/>
<stop offset="0.395833" stop-color="#FD1D1D"/>
<stop offset="0.59375" stop-color="#C13584"/>
<stop offset="0.796875" stop-color="#833AB4"/>
<stop offset="1" stop-color="#405DE6"/>
</linearGradient>
<linearGradient id="paint3_linear_434_914" x1="112.125" y1="37.7692" x2="105.4" y2="37.6788" gradientUnits="userSpaceOnUse">
<stop stop-color="#FCAF45"/>
<stop offset="0.197917" stop-color="#F77737"/>
<stop offset="0.395833" stop-color="#FD1D1D"/>
<stop offset="0.59375" stop-color="#C13584"/>
<stop offset="0.796875" stop-color="#833AB4"/>
<stop offset="1" stop-color="#405DE6"/>
</linearGradient>
<linearGradient id="paint4_linear_434_914" x1="92.7188" y1="50.7067" x2="106.161" y2="50.3456" gradientUnits="userSpaceOnUse">
<stop stop-color="#FCAF45"/>
<stop offset="0.197917" stop-color="#F77737"/>
<stop offset="0.395833" stop-color="#FD1D1D"/>
<stop offset="0.59375" stop-color="#C13584"/>
<stop offset="0.796875" stop-color="#833AB4"/>
<stop offset="1" stop-color="#405DE6"/>
</linearGradient>
</defs>
</svg>
