<svg width="27" height="26" viewBox="0 0 27 26" fill="none" xmlns="http://www.w3.org/2000/svg">
<g clip-path="url(#clip0_119_449)">
<path d="M19.3825 2.66699L19.0573 2.99278V2.66699H17.4556C16.7335 3.78295 15.2088 4.55434 13.4387 4.55434C11.6692 4.55434 10.1446 3.78295 9.42239 2.66699H7.82067V2.99278L7.49488 2.66699L1.73438 8.43074L4.88536 11.5843L7.82067 8.64771V23.332H19.056V8.64836L21.992 11.585L25.1423 8.43074L19.3825 2.66699Z" fill="url(#paint0_linear_119_449)"/>
<path d="M19.0562 24.6273H7.82079C7.10574 24.6273 6.52542 24.047 6.52542 23.332V11.776L5.8013 12.5001C5.55842 12.7436 5.22875 12.8796 4.88483 12.8796C4.54156 12.8796 4.21124 12.743 3.96836 12.5001L0.817372 9.34652C0.312178 8.84068 0.312178 8.02136 0.817372 7.51487L6.57917 1.75113C6.86027 1.46938 7.26637 1.33272 7.65757 1.38195C7.71133 1.37547 7.76573 1.37158 7.82079 1.37158H9.42251C9.86164 1.37158 10.2716 1.59439 10.51 1.96292C11.0197 2.7505 12.1693 3.25893 13.4388 3.25893C14.7083 3.25893 15.8585 2.7505 16.3683 1.96292C16.6066 1.59439 17.016 1.37158 17.4557 1.37158H19.0575C19.1125 1.37158 19.1669 1.37482 19.2207 1.38195C19.2738 1.37547 19.3275 1.37158 19.382 1.37158C19.3826 1.37158 19.3826 1.37158 19.3826 1.37158C19.7259 1.37158 20.0555 1.50824 20.2991 1.75113L26.0596 7.51422C26.5648 8.02006 26.5648 8.83938 26.0596 9.34587L22.9092 12.5001C22.6664 12.743 22.3367 12.8796 21.9934 12.8796C21.9928 12.8796 21.9928 12.8796 21.9928 12.8796C21.6495 12.8803 21.3198 12.7436 21.0769 12.5007L20.3522 11.7753V23.332C20.3515 24.0477 19.7719 24.6273 19.0562 24.6273ZM9.11615 22.0366H17.7608V8.64832C17.7608 8.12434 18.0762 7.65218 18.56 7.4514C19.0445 7.24997 19.6009 7.36137 19.972 7.73249L21.9915 9.75197L23.3115 8.4307L19.1669 4.28357C18.9603 4.30235 18.7569 4.26997 18.562 4.18966C18.4266 4.13396 18.3042 4.05623 18.198 3.96232H18.0866C17.0173 5.14111 15.3035 5.84967 13.4388 5.84967C11.5741 5.84967 9.86099 5.14111 8.79102 3.96232H8.67961C8.57404 4.05623 8.45163 4.13331 8.31626 4.18966C8.12002 4.27062 7.91146 4.29912 7.71003 4.28357L3.56485 8.43134L4.88483 9.75262L6.90366 7.73249C7.27414 7.36137 7.83115 7.25061 8.31562 7.4514C8.80008 7.65218 9.11551 8.12434 9.11551 8.64832V22.0366H9.11615Z" fill="url(#paint1_linear_119_449)"/>
</g>
<defs>
<linearGradient id="paint0_linear_119_449" x1="1.73438" y1="13.1106" x2="26.0672" y2="12.7404" gradientUnits="userSpaceOnUse">
<stop stop-color="#FCAF45"/>
<stop offset="0.197917" stop-color="#F77737"/>
<stop offset="0.395833" stop-color="#FD1D1D"/>
<stop offset="0.59375" stop-color="#C13584"/>
<stop offset="0.796875" stop-color="#833AB4"/>
<stop offset="1" stop-color="#405DE6"/>
</linearGradient>
<linearGradient id="paint1_linear_119_449" x1="0.438477" y1="13.1245" x2="27.4659" y2="12.7187" gradientUnits="userSpaceOnUse">
<stop stop-color="#FCAF45"/>
<stop offset="0.197917" stop-color="#F77737"/>
<stop offset="0.395833" stop-color="#FD1D1D"/>
<stop offset="0.59375" stop-color="#C13584"/>
<stop offset="0.796875" stop-color="#833AB4"/>
<stop offset="1" stop-color="#405DE6"/>
</linearGradient>
<clipPath id="clip0_119_449">
<rect width="26" height="26" fill="white" transform="translate(0.439209)"/>
</clipPath>
</defs>
</svg>
