<svg width="20" height="20" viewBox="0 0 20 20" fill="none" xmlns="http://www.w3.org/2000/svg">
<g clip-path="url(#clip0_408_344)">
<path d="M14.5716 2.05151L14.3215 2.30212V2.05151H13.0894C12.5338 2.90994 11.361 3.50332 9.99941 3.50332C8.63827 3.50332 7.46547 2.90994 6.90995 2.05151H5.67786V2.30212L5.42725 2.05151L0.996094 6.48516L3.41993 8.91099L5.67786 6.65207V17.9477H14.3205V6.65256L16.5789 8.91149L19.0022 6.48516L14.5716 2.05151Z" fill="url(#paint0_linear_408_344)"/>
<path d="M14.3203 18.9442H5.67772C5.12769 18.9442 4.68128 18.4978 4.68128 17.9478V9.05856L4.12428 9.61557C3.93744 9.8029 3.68385 9.90753 3.4193 9.90753C3.15524 9.90753 2.90115 9.8024 2.71432 9.61557L0.290481 7.18974C-0.0981292 6.80064 -0.0981292 6.17039 0.290481 5.78078L4.72264 1.34713C4.93886 1.13041 5.25125 1.02528 5.55217 1.06315C5.59352 1.05817 5.63537 1.05518 5.67772 1.05518H6.90982C7.24761 1.05518 7.56298 1.22656 7.74633 1.51005C8.13842 2.11588 9.02276 2.50699 9.99927 2.50699C10.9758 2.50699 11.8606 2.11588 12.2527 1.51005C12.4361 1.22656 12.7509 1.05518 13.0892 1.05518H14.3213C14.3637 1.05518 14.4055 1.05767 14.4469 1.06315C14.4877 1.05817 14.5291 1.05518 14.5709 1.05518C14.5714 1.05518 14.5714 1.05518 14.5714 1.05518C14.8355 1.05518 15.0891 1.1603 15.2764 1.34713L19.7076 5.78028C20.0962 6.16939 20.0962 6.79964 19.7076 7.18925L17.2842 9.61557C17.0974 9.8024 16.8438 9.90753 16.5797 9.90753C16.5792 9.90753 16.5792 9.90753 16.5792 9.90753C16.3152 9.90803 16.0616 9.8029 15.8748 9.61607L15.3173 9.05807V17.9478C15.3168 18.4983 14.8709 18.9442 14.3203 18.9442ZM6.67416 16.9513H13.3239V6.65266C13.3239 6.24961 13.5665 5.8864 13.9387 5.73196C14.3114 5.57701 14.7393 5.6627 15.0248 5.94818L16.5783 7.50163L17.5936 6.48526L14.4055 3.29517C14.2466 3.30962 14.0901 3.28471 13.9402 3.22293C13.8361 3.18008 13.7419 3.12029 13.6602 3.04805H13.5745C12.7519 3.95481 11.4336 4.49986 9.99927 4.49986C8.5649 4.49986 7.24711 3.95481 6.42405 3.04805H6.33836C6.25715 3.12029 6.16299 3.17958 6.05886 3.22293C5.9079 3.2852 5.74747 3.30712 5.59253 3.29517L2.40393 6.48576L3.4193 7.50213L4.97224 5.94818C5.25723 5.6627 5.68569 5.57751 6.05836 5.73196C6.43103 5.8864 6.67366 6.24961 6.67366 6.65266V16.9513H6.67416Z" fill="url(#paint1_linear_408_344)"/>
</g>
<defs>
<linearGradient id="paint0_linear_408_344" x1="0.996094" y1="10.0851" x2="19.7136" y2="9.80031" gradientUnits="userSpaceOnUse">
<stop stop-color="#FCAF45"/>
<stop offset="0.197917" stop-color="#F77737"/>
<stop offset="0.395833" stop-color="#FD1D1D"/>
<stop offset="0.59375" stop-color="#C13584"/>
<stop offset="0.796875" stop-color="#833AB4"/>
<stop offset="1" stop-color="#405DE6"/>
</linearGradient>
<linearGradient id="paint1_linear_408_344" x1="-0.000976532" y1="10.0959" x2="20.7893" y2="9.78371" gradientUnits="userSpaceOnUse">
<stop stop-color="#FCAF45"/>
<stop offset="0.197917" stop-color="#F77737"/>
<stop offset="0.395833" stop-color="#FD1D1D"/>
<stop offset="0.59375" stop-color="#C13584"/>
<stop offset="0.796875" stop-color="#833AB4"/>
<stop offset="1" stop-color="#405DE6"/>
</linearGradient>
<clipPath id="clip0_408_344">
<rect width="20" height="20" fill="white"/>
</clipPath>
</defs>
</svg>
